<svg xmlns="http://www.w3.org/2000/svg" xmlns:xlink="http://www.w3.org/1999/xlink" width="500" zoomAndPan="magnify" viewBox="0 0 375 374.999991" height="500" preserveAspectRatio="xMidYMid meet" version="1.0"><defs><clipPath id="4c98c981ae"><path d="M 108 86.117188 L 293 86.117188 L 293 262 L 108 262 Z M 108 86.117188 " clip-rule="nonzero"/></clipPath><clipPath id="dc0caa4351"><path d="M 81.480469 220 L 259 220 L 259 269.117188 L 81.480469 269.117188 Z M 81.480469 220 " clip-rule="nonzero"/></clipPath></defs><g clip-path="url(#4c98c981ae)"><path fill="#f3f7fa" d="M 277.316406 113.398438 C 277.367188 121.078125 271.75 127.878906 265.816406 132.796875 C 257.234375 139.855469 244.042969 144.414062 233.605469 148.132812 C 251.246094 146.972656 273.738281 143.433594 283.433594 133.375 C 288.28125 128.335938 293.5 120.660156 291.859375 112.539062 C 290.453125 105.542969 280.917969 101.382812 270.796875 101.542969 C 273.554688 105.402344 277.261719 107.941406 277.316406 113.398438 Z M 179.589844 166.652344 C 180.542969 167.269531 181.230469 169.632812 182.636719 168.949219 C 180.542969 166.910156 183.140625 164.113281 183.03125 161.730469 C 191.246094 154.574219 201.65625 149.8125 213.3125 145.234375 C 224.835938 140.675781 237.207031 136.976562 246.265625 130.476562 C 246.347656 130.117188 246.847656 129.875 245.867188 129.898438 C 225.734375 142.335938 181.125 140.414062 179.589844 166.652344 Z M 156.964844 160.851562 C 144.25 162.933594 121.8125 162.132812 111.746094 166.652344 C 104.488281 171.210938 112.886719 174.449219 115.957031 178.789062 C 119.03125 183.148438 120.9375 188.648438 123.242188 193.546875 C 125.574219 198.507812 127.746094 203.644531 130.15625 208.605469 C 133.761719 216.125 137.8125 223.601562 139.71875 231.742188 C 141.019531 237.222656 140.066406 242.019531 144.699219 244.480469 C 156.089844 250.519531 182.820312 248.558594 195.296875 244.761719 C 196.96875 241.878906 198.636719 239 199.113281 235.222656 C 206.925781 235.082031 207.90625 228.722656 212.148438 225.382812 C 214.238281 223.722656 218.453125 222.101562 221.738281 220.164062 C 230.636719 214.925781 243.007812 206.765625 243.960938 196.726562 C 244.492188 191.167969 241.445312 184.390625 234.769531 182.269531 C 221.894531 178.171875 224.515625 190.546875 219.828125 193.546875 C 220.703125 188.929688 223.0625 185.390625 222.875 179.949219 C 222.636719 178.511719 219.378906 179.328125 219.0625 177.929688 C 222.476562 175.269531 229.921875 175.832031 229.019531 170.691406 C 228.519531 167.871094 222 165.632812 216.757812 164.332031 C 207.933594 162.152344 198.636719 161.371094 188.382812 161.734375 C 186.582031 162.773438 184.835938 163.871094 184.570312 166.070312 C 193.601562 167.433594 206 167.832031 215.21875 168.09375 C 208.253906 165.914062 198.398438 165.933594 190.316406 164.613281 C 202 164.792969 213.761719 165.253906 219.828125 169.25 C 211.007812 175.808594 190.398438 175.652344 171.90625 175.03125 C 158.421875 174.589844 139.058594 175.429688 127.457031 172.710938 C 124.222656 171.972656 118.660156 170.691406 120.9375 167.230469 C 122.503906 167.3125 122.476562 169.25 124.410156 169.53125 C 125.679688 169.730469 129.761719 168.191406 132.066406 167.792969 C 140.753906 166.371094 151.375 166.832031 159.640625 166.070312 C 159.191406 165.113281 159.828125 160.390625 156.964844 160.851562 Z M 259.296875 90.542969 C 263.21875 97.605469 258.820312 107.421875 255.457031 110.5 C 247.269531 118 234.605469 122.71875 218.660156 126.140625 C 211.164062 127.738281 203.214844 128.71875 196.0625 130.757812 C 184.378906 134.097656 170.765625 139.15625 165.785156 146.976562 C 161.042969 154.433594 156.960938 170.453125 169.625 172.429688 C 169.703125 170.230469 168.007812 168.792969 167.691406 166.351562 C 166.472656 156.933594 171.585938 149.933594 177.28125 145.234375 C 184.433594 141.015625 193.707031 139.238281 204.488281 137.71875 C 219.425781 135.597656 234.472656 132.457031 245.097656 127.300781 C 250.976562 124.441406 255.269531 120.960938 261.574219 118.039062 C 257.839844 127.277344 248.355469 132.15625 238.210938 136.835938 C 232.832031 139.335938 227.191406 142.117188 222.101562 144.074219 C 216.804688 146.117188 209.734375 147.714844 205.253906 150.15625 C 203.90625 150.894531 201.335938 152.472656 202.183594 153.054688 C 230.953125 147.214844 268.859375 140.574219 271.933594 115.71875 C 272.488281 111.140625 271.773438 108.042969 269.257812 105.882812 C 268.359375 109.359375 267.058594 114.058594 263.882812 114.859375 C 265.734375 109.101562 271.246094 101.863281 268.09375 95.183594 C 266.238281 91.222656 261.496094 88.203125 256.597656 86.484375 C 256.226562 86.484375 256.144531 86.261719 255.828125 86.203125 C 257.203125 88.285156 258.582031 89.265625 259.296875 90.542969 Z M 119.027344 255.476562 C 130.523438 260.316406 151.824219 262.195312 171.53125 261.558594 C 183.925781 261.136719 198.074219 262.035156 206.390625 257.796875 C 178.363281 261.535156 143.742188 258.476562 119.023438 255.476562 Z M 116.722656 173.871094 C 119.847656 175.710938 131.503906 176.847656 134.734375 175.328125 C 124.75 175.351562 118.921875 172.210938 114.417969 168.089844 L 113.675781 168.089844 C 113.011719 169.910156 114.839844 172.75 116.722656 173.871094 Z M 136.273438 180.527344 C 156.300781 182.546875 185.066406 183.589844 201.808594 179.667969 C 173.332031 181.109375 138.367188 181.46875 117.886719 175.328125 C 119.582031 179.867188 129.0625 179.808594 136.269531 180.527344 Z M 126.3125 184.289062 C 133.863281 185.226562 144.058594 185.75 151.980469 185.449219 C 145.648438 182.609375 133.941406 183.828125 126.3125 181.96875 Z M 126.683594 188.628906 C 132.296875 190.289062 140.855469 189.707031 148.539062 189.789062 C 147.476562 187.226562 143.820312 188.40625 140.484375 188.347656 C 136.058594 188.25 130.074219 186.507812 126.683594 186.328125 Z M 221.359375 215.261719 C 226.710938 209.144531 240.300781 203.925781 238.976562 193.847656 C 238.710938 191.765625 236.910156 189.605469 234.765625 189.207031 C 225.042969 187.425781 224.828125 196.667969 217.890625 197.886719 C 213.597656 208.625 205.890625 218.324219 202.578125 228.859375 C 207.132812 223.042969 212.246094 217.644531 221.359375 215.261719 Z M 128.21875 192.6875 C 133.757812 195.226562 142.738281 193.425781 150.84375 193.847656 C 145.597656 191.246094 135.214844 192.527344 128.21875 191.246094 Z M 130.152344 198.464844 C 137.597656 197.90625 147.664062 199.527344 152.75 197.886719 C 145.785156 196.488281 136.113281 197.144531 129.386719 195.585938 C 129.121094 196.925781 129.96875 197.445312 130.152344 198.464844 Z M 132.433594 203.105469 C 139.875 202.984375 146.976562 203.804688 153.148438 203.105469 C 147.902344 200.765625 138.65625 201.484375 131.292969 200.785156 C 130.976562 202.085938 132.195312 202.226562 132.433594 203.105469 Z M 134.738281 207.726562 C 139.902344 207.585938 148.722656 209.226562 151.980469 206.863281 C 146.152344 206.34375 138.550781 205.625 133.199219 205.703125 C 134.023438 206.144531 134.3125 206.984375 134.738281 207.726562 Z M 137.042969 212.644531 C 142.128906 212.042969 150.5 213.945312 153.148438 211.484375 C 148.433594 210.425781 140.566406 210.183594 135.902344 210.042969 C 136.539062 210.722656 136.882812 211.605469 137.042969 212.644531 Z M 139.347656 217.285156 C 144.671875 217.863281 151.265625 217.582031 156.195312 216.984375 C 152.722656 214.242188 143.53125 216.722656 138.578125 214.683594 C 138.390625 215.882812 139.691406 215.945312 139.347656 217.285156 Z M 143.558594 223.0625 C 149.546875 222.484375 157.597656 223.441406 161.171875 221.042969 C 155.027344 220.582031 147.664062 221.023438 142.019531 220.164062 C 141.757812 221.722656 143.160156 222.023438 143.558594 223.0625 Z M 144.695312 227.402344 C 150.3125 227.5625 159.320312 228.121094 162.710938 225.664062 C 157.148438 225.0625 149.808594 225.761719 144.324219 225.082031 C 143.453125 225.78125 145.175781 226.160156 144.695312 227.402344 Z M 145.863281 231.460938 C 150.5 232.679688 159.054688 232.839844 162.339844 230.582031 C 157.09375 230 151.292969 229.859375 145.863281 229.441406 Z M 146.628906 234.921875 C 150.101562 236.898438 160.457031 237.601562 164.644531 235.5 C 159.691406 234.140625 152.511719 234.441406 146.628906 233.78125 Z M 146.628906 241 C 153.625 242.800781 167.398438 243.460938 176.511719 242.460938 C 178.207031 242.257812 179.746094 241.960938 180.726562 241 C 167.71875 241 155.558594 240.320312 145.464844 238.121094 C 145.28125 239.519531 146.65625 239.71875 146.632812 241 Z M 231.695312 194.425781 C 223.90625 198.484375 217.417969 203.503906 215.984375 212.363281 C 220.832031 211.003906 224.382812 208.683594 227.851562 206.285156 C 228.117188 204.363281 229.761719 203.464844 231.695312 202.804688 C 232.941406 200.503906 235.589844 197.925781 234.371094 194.707031 C 233.046875 194.945312 232.914062 194.289062 231.695312 194.425781 Z M 231.695312 194.425781 " fill-opacity="1" fill-rule="evenodd"/></g><g clip-path="url(#dc0caa4351)"><path fill="#f3f7fa" d="M 222.882812 229.640625 C 227.949219 230.5 232.636719 231.886719 236.554688 234.195312 C 226.855469 236.410156 215.730469 227.496094 207.59375 233.703125 C 214.414062 236.507812 224.335938 235.515625 230.171875 239.445312 C 222.554688 241.691406 212.746094 235.417969 207.59375 241.328125 C 211.921875 242.648438 217.15625 242.910156 221.074219 244.695312 C 216.277344 247.203125 206.660156 243.867188 202.824219 247.566406 C 205.59375 250.4375 210.964844 248.191406 215.128906 248.523438 C 214.582031 251.988281 209.894531 250.503906 207.210938 251.394531 C 221.566406 252.320312 241.488281 247.101562 250.007812 237.53125 C 250.089844 235.089844 248.445312 234.625 248.417969 232.28125 C 250.941406 233.339844 252.503906 236.769531 251.597656 240.863281 C 250.75 244.59375 242.472656 247.894531 237.320312 249.480469 C 218.113281 255.390625 191.589844 260.175781 166.246094 260.042969 L 166.246094 260.242188 C 143.449219 259.449219 120.40625 255.125 103.199219 249.777344 C 98.046875 248.191406 89.773438 244.890625 88.953125 241.195312 C 87.992188 237.101562 89.582031 233.667969 92.101562 232.613281 C 92.074219 234.957031 90.460938 235.386719 90.511719 237.828125 C 99.035156 247.433594 118.953125 252.648438 133.3125 251.691406 C 130.628906 250.832031 125.914062 252.320312 125.394531 248.820312 C 129.558594 248.492188 134.957031 250.769531 137.667969 247.863281 C 133.859375 244.199219 124.242188 247.5 119.476562 245.023438 C 123.367188 243.207031 128.601562 242.976562 132.929688 241.65625 C 127.777344 235.714844 117.996094 242.019531 110.351562 239.777344 C 116.214844 235.847656 126.132812 236.804688 132.929688 234.03125 C 124.789062 227.828125 113.667969 236.707031 103.996094 234.496094 C 112.242188 229.640625 123.941406 228.917969 135.722656 228.289062 C 135.832031 219.246094 126.957031 220.433594 120.242188 221.125 C 108.542969 222.316406 92.347656 226.40625 86.15625 231.160156 C 84.128906 232.746094 81.855469 236.640625 81.800781 239.28125 C 81.5 249.777344 95.363281 253.277344 103.199219 256.480469 C 110.761719 259.546875 117.394531 261.332031 125.394531 262.683594 C 129.96875 263.445312 134 265.820312 138.464844 266.480469 C 145.617188 267.636719 155.261719 266.941406 162.273438 268.429688 C 164.355469 268.855469 166.441406 269.054688 168.605469 269.121094 L 168.550781 268.824219 C 171.894531 268.921875 175.125 268.757812 178.25 268.097656 C 185.265625 266.644531 194.910156 267.304688 202.058594 266.214844 C 206.527344 265.492188 210.554688 263.148438 215.128906 262.386719 C 223.132812 261 229.761719 259.21875 237.324219 256.183594 C 245.160156 253.011719 259.050781 249.480469 258.722656 238.984375 C 258.667969 236.308594 256.421875 232.414062 254.367188 230.863281 C 249.597656 227.167969 238.941406 223.933594 228.941406 222.082031 C 224.9375 221.355469 216.855469 219.179688 215.433594 225.945312 C 214.5 230.367188 220.609375 229.410156 222.609375 229.578125 C 222.691406 229.609375 222.800781 229.609375 222.882812 229.640625 Z M 222.882812 229.640625 " fill-opacity="1" fill-rule="evenodd"/></g></svg>