<svg xmlns="http://www.w3.org/2000/svg" xmlns:xlink="http://www.w3.org/1999/xlink" width="500" zoomAndPan="magnify" viewBox="0 0 375 374.999991" height="500" preserveAspectRatio="xMidYMid meet" version="1.0"><defs><clipPath id="5a91f91c16"><path d="M 113 191 L 149 191 L 149 229.703125 L 113 229.703125 Z M 113 191 " clip-rule="nonzero"/></clipPath></defs><path fill="#f3f7fa" d="M 175.257812 191.175781 C 173.394531 188.121094 171.175781 185.296875 169.058594 182.417969 C 166.105469 178.449219 162.886719 174.617188 158.828125 171.734375 C 156.921875 170.34375 154.933594 168.84375 152.835938 167.785156 C 152.089844 167.355469 151.269531 167.113281 150.449219 167.066406 C 150.417969 167.03125 150.390625 167 150.359375 166.96875 C 144.820312 167.902344 139.121094 179.414062 137.628906 183.710938 C 137.03125 185.355469 136.5 187.019531 136.085938 188.722656 C 136.003906 189.136719 135.898438 189.554688 135.84375 189.972656 C 135.839844 190.011719 135.835938 190.046875 135.832031 190.082031 C 135.828125 190.128906 135.824219 190.171875 135.820312 190.21875 C 135.925781 190.238281 136.035156 190.257812 136.140625 190.28125 C 136.21875 190.296875 136.292969 190.3125 136.367188 190.332031 C 136.382812 190.332031 136.398438 190.335938 136.410156 190.339844 C 137.535156 190.59375 138.632812 190.960938 139.65625 191.507812 C 144.753906 194.253906 148.28125 199.574219 149.523438 205.160156 C 150.367188 209.429688 150.507812 214.027344 148.882812 218.132812 C 148.511719 219.074219 148.054688 219.980469 147.523438 220.84375 C 147.492188 220.898438 147.460938 220.953125 147.425781 221.007812 C 147.410156 221.035156 147.390625 221.0625 147.375 221.085938 C 147.359375 221.113281 147.34375 221.140625 147.324219 221.167969 C 147.414062 221.15625 147.5 221.144531 147.585938 221.132812 C 151.988281 220.546875 156.375 219.761719 160.59375 218.382812 C 165.9375 216.417969 170.949219 213.304688 174.996094 209.292969 C 175.003906 209.28125 175.015625 209.273438 175.023438 209.265625 C 175.085938 209.199219 175.152344 209.136719 175.214844 209.070312 C 175.289062 208.992188 175.359375 208.910156 175.429688 208.828125 C 175.4375 208.820312 175.441406 208.8125 175.449219 208.808594 C 175.585938 208.648438 175.71875 208.488281 175.851562 208.324219 C 175.921875 208.242188 175.988281 208.15625 176.054688 208.066406 L 176.058594 208.066406 C 177.335938 206.417969 178.3125 204.5 178.476562 202.402344 C 178.59375 198.445312 177.273438 194.546875 175.257812 191.175781 Z M 175.257812 191.175781 " fill-opacity="1" fill-rule="nonzero"/><g clip-path="url(#5a91f91c16)"><path fill="#f3f7fa" d="M 148.621094 208.335938 C 148.15625 202.425781 145.046875 196.640625 140.082031 193.339844 C 138.683594 192.410156 137.101562 191.859375 135.464844 191.546875 C 129.929688 193.738281 124.273438 200.855469 121.449219 204.4375 C 118.457031 208.398438 115.261719 212.449219 113.902344 217.296875 C 112.503906 222.378906 114.78125 229.65625 120.894531 229.792969 C 125.796875 229.847656 130.316406 227.484375 134.78125 225.734375 C 137.289062 224.589844 139.902344 223.675781 142.425781 222.566406 C 142.871094 222.367188 143.3125 222.167969 143.75 221.957031 C 143.839844 221.914062 143.929688 221.871094 144.015625 221.828125 C 144.132812 221.769531 144.246094 221.714844 144.363281 221.65625 C 144.46875 221.601562 144.578125 221.546875 144.683594 221.492188 C 144.691406 221.488281 144.699219 221.484375 144.703125 221.480469 C 144.910156 221.375 145.113281 221.265625 145.316406 221.15625 C 145.425781 221.082031 145.53125 221.007812 145.636719 220.929688 C 145.703125 220.933594 145.769531 220.9375 145.832031 220.9375 C 146.367188 220.152344 146.835938 219.324219 147.25 218.472656 C 148.722656 215.316406 148.957031 211.761719 148.621094 208.335938 Z M 148.621094 208.335938 " fill-opacity="1" fill-rule="nonzero"/></g><path fill="#f3f7fa" d="M 231.941406 173.261719 C 231.660156 167.984375 231.140625 162.304688 228.21875 157.8125 C 228.164062 157.726562 228.109375 157.644531 228.054688 157.5625 C 228 157.480469 227.945312 157.398438 227.886719 157.320312 C 227.832031 157.238281 227.773438 157.15625 227.714844 157.078125 C 227.65625 156.996094 227.59375 156.917969 227.535156 156.839844 C 227.414062 156.679688 227.289062 156.523438 227.160156 156.367188 C 227.097656 156.292969 227.03125 156.214844 226.96875 156.136719 C 226.902344 156.0625 226.835938 155.984375 226.765625 155.910156 C 226.714844 155.855469 226.664062 155.796875 226.613281 155.746094 C 226.601562 155.730469 226.585938 155.714844 226.570312 155.699219 C 226.515625 155.640625 226.460938 155.582031 226.402344 155.523438 C 226.390625 155.507812 226.378906 155.496094 226.363281 155.480469 C 226.308594 155.421875 226.25 155.363281 226.191406 155.304688 C 226.132812 155.246094 226.074219 155.1875 226.015625 155.128906 C 217.792969 146.96875 203.664062 145.082031 192.742188 147.351562 C 191.398438 147.660156 190.039062 147.96875 188.699219 148.335938 C 189.292969 148.660156 189.878906 149.035156 190.457031 149.453125 C 194.199219 152.0625 196.402344 156.140625 198.324219 160.160156 C 202.902344 169.371094 207.9375 178.8125 208.609375 189.269531 C 208.871094 192.238281 208.421875 194.726562 207.359375 196.859375 C 208.1875 196.695312 209.019531 196.5625 209.859375 196.460938 C 213.785156 195.976562 217.777344 196.191406 221.671875 195.410156 C 223.308594 195.089844 224.96875 194.515625 226.429688 193.65625 C 226.441406 193.648438 226.457031 193.640625 226.472656 193.632812 C 226.476562 193.628906 226.480469 193.625 226.488281 193.621094 C 226.535156 193.59375 226.585938 193.5625 226.632812 193.53125 C 226.6875 193.5 226.738281 193.46875 226.789062 193.4375 C 226.835938 193.40625 226.878906 193.378906 226.925781 193.347656 C 227.160156 193.195312 227.390625 193.03125 227.613281 192.859375 C 227.652344 192.828125 227.691406 192.800781 227.726562 192.769531 C 227.832031 192.6875 227.929688 192.605469 228.03125 192.519531 C 228.128906 192.433594 228.226562 192.347656 228.324219 192.261719 C 228.359375 192.222656 228.398438 192.1875 228.4375 192.152344 C 229.417969 191.21875 230.191406 190.082031 230.648438 188.730469 C 232.308594 183.773438 232.085938 178.421875 231.941406 173.261719 Z M 231.941406 173.261719 " fill-opacity="1" fill-rule="nonzero"/><path fill="#f3f7fa" d="M 260.257812 186.960938 C 258.988281 184.375 257.375 181.992188 255.589844 179.742188 C 251.195312 174.070312 245.867188 169.1875 239.902344 165.207031 C 236.832031 163.058594 233.730469 160.945312 230.492188 159.074219 C 233.066406 164.414062 233.285156 170.878906 233.414062 176.757812 C 233.414062 182.753906 233.207031 188.316406 230.265625 192.136719 C 236.554688 192.214844 242.886719 193.613281 248.988281 194.925781 C 248.992188 194.925781 248.996094 194.925781 249.003906 194.929688 C 252.714844 195.507812 258.472656 197.496094 261.066406 193.855469 C 262.535156 191.644531 261.324219 189.0625 260.257812 186.960938 Z M 260.257812 186.960938 " fill-opacity="1" fill-rule="nonzero"/><path fill="#f3f7fa" d="M 197.566406 161.726562 C 196.226562 159.050781 194.988281 156.28125 193.132812 153.914062 C 191.449219 151.738281 189.21875 150.003906 186.722656 148.929688 C 186.640625 148.894531 186.558594 148.859375 186.476562 148.824219 C 186.464844 148.820312 186.453125 148.816406 186.441406 148.8125 C 186.367188 148.78125 186.292969 148.75 186.21875 148.722656 C 185.976562 148.628906 185.734375 148.539062 185.484375 148.457031 C 185.4375 148.441406 185.390625 148.425781 185.339844 148.410156 C 185.304688 148.398438 185.265625 148.386719 185.230469 148.375 C 185.183594 148.359375 185.132812 148.347656 185.085938 148.332031 C 184.945312 148.289062 184.804688 148.25 184.660156 148.210938 C 183.09375 147.789062 181.453125 147.625 179.800781 147.761719 C 173.84375 148.234375 168.695312 151.730469 163.710938 154.71875 C 159.554688 157.355469 155.472656 160.183594 152.007812 163.703125 C 151.4375 164.308594 150.875 164.921875 150.371094 165.578125 C 150.359375 165.589844 150.351562 165.601562 150.339844 165.617188 C 150.332031 165.628906 150.320312 165.640625 150.3125 165.652344 C 150.324219 165.652344 150.335938 165.652344 150.347656 165.65625 C 150.394531 165.65625 150.4375 165.65625 150.480469 165.660156 C 150.554688 165.664062 150.625 165.671875 150.699219 165.679688 C 150.742188 165.683594 150.785156 165.6875 150.828125 165.695312 C 150.902344 165.703125 150.972656 165.710938 151.046875 165.726562 C 151.089844 165.730469 151.132812 165.738281 151.175781 165.746094 C 151.246094 165.761719 151.316406 165.773438 151.386719 165.789062 C 151.429688 165.800781 151.472656 165.808594 151.511719 165.820312 C 151.535156 165.824219 151.558594 165.832031 151.585938 165.835938 C 151.628906 165.847656 151.671875 165.859375 151.714844 165.871094 C 151.761719 165.882812 151.808594 165.898438 151.855469 165.910156 C 151.878906 165.917969 151.902344 165.925781 151.929688 165.933594 C 151.929688 165.933594 151.933594 165.933594 151.9375 165.933594 C 151.972656 165.945312 152.011719 165.960938 152.050781 165.972656 C 152.101562 165.988281 152.152344 166.003906 152.203125 166.023438 C 152.246094 166.035156 152.285156 166.050781 152.324219 166.066406 C 152.378906 166.082031 152.429688 166.101562 152.480469 166.125 C 152.582031 166.160156 152.675781 166.199219 152.773438 166.242188 C 152.886719 166.289062 153 166.339844 153.113281 166.390625 C 153.175781 166.417969 153.234375 166.445312 153.296875 166.476562 C 154.019531 166.820312 154.710938 167.238281 155.371094 167.640625 C 157.890625 169.296875 160.355469 171.050781 162.628906 173.03125 C 165.96875 175.964844 168.636719 179.546875 171.277344 183.097656 C 173.878906 186.671875 176.726562 190.167969 178.347656 194.320312 C 179.78125 198.175781 180.71875 202.738281 178.675781 206.527344 C 178.351562 207.136719 177.972656 207.730469 177.550781 208.3125 C 181.53125 208.964844 185.628906 209.085938 189.476562 207.734375 C 192.199219 206.804688 194.792969 205.328125 197.222656 203.960938 C 199.59375 202.589844 201.988281 201.1875 203.972656 199.277344 C 204.050781 199.199219 204.132812 199.125 204.207031 199.046875 C 204.242188 199.007812 204.277344 198.972656 204.3125 198.9375 C 204.5 198.742188 204.679688 198.539062 204.847656 198.332031 C 204.871094 198.304688 204.894531 198.273438 204.917969 198.246094 C 205.019531 198.117188 205.117188 197.988281 205.210938 197.855469 C 205.230469 197.828125 205.253906 197.800781 205.273438 197.769531 C 205.394531 197.597656 205.507812 197.421875 205.617188 197.246094 C 208.273438 192.890625 207.234375 187.039062 206.101562 182.242188 C 204.300781 175.007812 200.875 168.359375 197.566406 161.726562 Z M 197.566406 161.726562 " fill-opacity="1" fill-rule="nonzero"/></svg>