<svg xmlns="http://www.w3.org/2000/svg" xmlns:xlink="http://www.w3.org/1999/xlink" width="500" zoomAndPan="magnify" viewBox="0 0 375 374.999991" height="500" preserveAspectRatio="xMidYMid meet" version="1.0"><defs><clipPath id="dbf6fc9c1f"><path d="M 46.097656 134.042969 L 325 134.042969 L 325 272.042969 L 46.097656 272.042969 Z M 46.097656 134.042969 " clip-rule="nonzero"/></clipPath></defs><g clip-path="url(#dbf6fc9c1f)"><path fill="#f3f7fa" d="M 127.0625 150.324219 C 127.605469 148.195312 127.984375 146.3125 128.582031 144.5 C 128.972656 143.316406 129.542969 142.132812 130.28125 141.128906 C 131.578125 139.367188 133.257812 139.25 135.253906 140.625 C 136.066406 141.1875 136.480469 142.445312 138.144531 141.980469 C 138.671875 140.617188 139.171875 139.03125 139.886719 137.546875 C 140.625 136.019531 141.496094 134.367188 143.441406 134.214844 C 145.46875 134.050781 146.425781 135.660156 147.207031 137.183594 C 147.976562 138.695312 148.707031 140.265625 149.179688 141.890625 C 151.777344 150.890625 154.332031 159.902344 156.804688 168.941406 C 157.984375 173.246094 158.953125 177.609375 161.125 181.996094 C 162.101562 181.253906 163 180.734375 163.671875 180.007812 C 165.273438 178.296875 166.722656 176.441406 168.324219 174.726562 C 176.800781 165.660156 186.660156 169.214844 191.988281 177.3125 C 194.046875 180.4375 194.941406 184.34375 196.324219 187.902344 C 196.6875 188.851562 196.921875 189.847656 197.3125 191.15625 C 200.410156 190.128906 202.679688 188.703125 205.058594 186.792969 C 210.1875 182.679688 214.238281 177.332031 220.019531 173.992188 C 221.464844 173.15625 222.496094 171.5625 223.957031 170.78125 C 229.203125 167.980469 233.65625 163.90625 238.761719 161.082031 C 247.34375 156.335938 258.167969 155.359375 266.769531 164.789062 C 269.164062 167.417969 271.839844 169.136719 275.375 169.785156 C 276.972656 170.078125 278.738281 170.851562 279.882812 171.960938 C 282.542969 174.539062 285.515625 176.460938 288.914062 177.851562 C 289.882812 178.253906 290.878906 178.765625 291.644531 179.46875 C 293.886719 181.527344 296.457031 182.929688 299.257812 184.070312 C 300.597656 184.609375 302.144531 185.367188 302.894531 186.5 C 306.78125 192.292969 312.550781 196.050781 317.582031 200.613281 C 319.46875 202.328125 321.359375 204.082031 322.988281 206.035156 C 325.523438 209.078125 325.277344 212.371094 322.355469 215.117188 C 317.847656 219.359375 312.355469 220.558594 306.367188 219.898438 C 304.039062 219.648438 301.730469 219.175781 299.398438 218.980469 C 290.613281 218.234375 281.925781 218.902344 273.398438 221.164062 C 265.835938 223.164062 258.230469 223.109375 250.5625 222.035156 C 246.972656 221.527344 243.390625 220.882812 239.78125 220.636719 C 236.824219 220.433594 233.824219 220.585938 230.867188 220.828125 C 228.972656 220.980469 227.097656 221.507812 225.238281 221.972656 C 219.203125 223.472656 213.113281 224.332031 206.878906 223.929688 C 205.851562 223.867188 204.8125 224.007812 203.453125 224.078125 C 203.21875 225.898438 203.078125 227.546875 202.792969 229.167969 C 202.378906 231.464844 202.019531 233.789062 201.335938 236.011719 C 200.566406 238.53125 198.84375 240.589844 196.589844 241.847656 C 188.386719 246.433594 180.015625 246.953125 171.75 242.015625 C 168.828125 240.273438 166.070312 238.242188 163.371094 236.164062 C 159.8125 233.433594 155.941406 232.097656 151.453125 232.828125 C 149.355469 233.171875 147.210938 233.347656 145.160156 233.882812 C 139.796875 235.265625 134.472656 236.804688 128.796875 238.371094 C 126.046875 245.011719 119.984375 247.511719 113.542969 249.457031 C 111.304688 250.132812 109.042969 250.757812 106.78125 251.398438 C 94.667969 254.808594 84.140625 261.082031 74.566406 269.121094 C 73.308594 270.183594 71.890625 271.054688 70.21875 272.25 C 68.851562 270.730469 67.585938 269.613281 66.667969 268.265625 C 64.628906 265.265625 62.699219 262.199219 60.859375 259.082031 C 56.417969 251.550781 52.03125 244.003906 47.691406 236.417969 C 46.214844 233.832031 46.34375 232.574219 48.53125 230.835938 C 50.859375 228.992188 53.292969 227.167969 55.941406 225.875 C 71.246094 218.367188 86.835938 211.492188 102.742188 205.363281 C 104.332031 204.75 105.964844 204.152344 107.636719 203.902344 C 109.507812 203.613281 111.691406 203.113281 113.296875 203.78125 C 118.691406 206 122.265625 202.574219 126.003906 200.011719 C 127.191406 199.195312 127.878906 197.167969 128.132812 195.585938 C 128.699219 191.984375 128.347656 188.359375 127.160156 184.863281 C 125.863281 181.027344 124.550781 177.199219 123.3125 173.34375 C 121.675781 168.246094 120.496094 163.070312 120.90625 157.648438 C 120.96875 156.796875 120.945312 155.933594 121.058594 155.097656 C 121.535156 151.644531 122.292969 151.019531 127.054688 150.332031 Z M 198.71875 221.289062 C 196.640625 223.921875 195.367188 225.539062 194.097656 227.140625 C 188.976562 233.574219 182.753906 233.082031 178.886719 225.9375 C 178.789062 225.75 178.6875 225.558594 178.605469 225.363281 C 174.339844 214.996094 171.714844 204.308594 172.496094 193 C 172.59375 191.554688 173.015625 190.046875 173.640625 188.738281 C 174.882812 186.132812 177.398438 185.339844 180.101562 186.351562 C 181.800781 186.988281 182.945312 188.164062 183.828125 189.679688 C 185.65625 192.804688 187.425781 195.964844 189.34375 199.027344 C 189.96875 200.023438 190.753906 201.261719 192.558594 200.496094 C 194.421875 196.683594 193.640625 192.671875 192.648438 188.773438 C 191.609375 184.660156 190.640625 180.339844 187.453125 177.269531 C 182.089844 172.109375 176.863281 171.378906 171.25 176.949219 C 170.5 177.699219 169.804688 178.511719 169.136719 179.34375 C 167.136719 181.828125 165.167969 184.34375 163.175781 186.828125 C 161.484375 188.941406 159.398438 188.660156 158.273438 186.113281 C 157.761719 184.945312 157.351562 183.722656 157.015625 182.496094 C 154.453125 173.261719 151.972656 163.996094 149.355469 154.78125 C 148.195312 150.695312 146.820312 146.65625 145.441406 142.632812 C 145.125 141.714844 144.417969 140.917969 143.46875 139.390625 C 141.269531 145.070312 139.746094 149.816406 141.550781 155.269531 C 143.488281 161.125 144.84375 167.171875 146.503906 173.125 C 147.472656 176.609375 148.582031 180.058594 149.558594 183.542969 C 150.050781 185.304688 149.496094 186.617188 148.425781 186.640625 C 147.105469 186.675781 146.628906 185.726562 146.222656 184.730469 C 145.898438 183.941406 145.597656 183.140625 145.363281 182.320312 C 143.664062 176.386719 142 170.4375 140.308594 164.503906 C 139.078125 160.203125 137.878906 155.894531 136.558594 151.617188 C 135.820312 149.222656 134.949219 146.847656 132.519531 144.636719 C 130.597656 150.820312 131.015625 156.425781 132.660156 161.980469 C 134.585938 168.511719 136.710938 174.988281 138.6875 181.511719 C 138.917969 182.285156 138.804688 183.191406 138.714844 184.027344 C 138.671875 184.371094 138.265625 184.933594 138.003906 184.9375 C 137.4375 184.960938 136.679688 184.863281 136.332031 184.496094 C 135.777344 183.898438 135.371094 183.085938 135.113281 182.296875 C 134.175781 179.46875 133.371094 176.601562 132.4375 173.773438 C 130.773438 168.722656 129.070312 163.679688 127.324219 158.660156 C 126.984375 157.691406 126.542969 156.652344 124.914062 156.664062 C 124.789062 157.875 124.507812 159.109375 124.5625 160.324219 C 124.65625 162.234375 124.730469 164.199219 125.246094 166.019531 C 126.683594 171.140625 128.453125 176.167969 129.878906 181.289062 C 130.785156 184.554688 131.761719 187.910156 131.917969 191.261719 C 132.332031 200.515625 130.363281 202.539062 123.496094 205.972656 C 121.65625 206.894531 119.386719 207.1875 118.234375 209.113281 C 120.398438 217.179688 125.160156 229.746094 127.871094 234.429688 C 129.183594 234.191406 130.644531 234.007812 132.050781 233.648438 C 137 232.386719 141.917969 230.953125 146.890625 229.765625 C 153.863281 228.101562 160.386719 228.75 166.132812 233.628906 C 168.230469 235.414062 170.640625 236.839844 172.972656 238.339844 C 179.398438 242.484375 186.015625 242.984375 192.964844 239.550781 C 195.648438 238.222656 197.460938 236.359375 198.304688 233.566406 C 199.363281 230.046875 199.566406 226.472656 198.71875 221.28125 Z M 270.6875 218.523438 C 271.214844 216.296875 271.75 214.253906 272.164062 212.195312 C 273.996094 203.078125 273.011719 193.941406 272.066406 184.847656 C 271.671875 181.089844 270.816406 177.222656 269.339844 173.757812 C 263.492188 159.957031 250.359375 157.691406 239.289062 163.996094 C 236.949219 165.332031 234.703125 167.074219 233.699219 169.972656 C 241.085938 185.4375 245.007812 201.992188 248.910156 218.65625 C 256.082031 220.066406 262.976562 220.757812 270.6875 218.53125 Z M 230.601562 170.789062 C 225.722656 171.785156 223.980469 174.550781 224 178.675781 C 224.007812 180.367188 223.902344 182.058594 224.042969 183.738281 C 225.054688 195.824219 229.667969 206.683594 235.308594 217.257812 C 238.566406 217.707031 241.65625 218.058594 245.113281 217.714844 C 244.816406 210.101562 242.175781 203.359375 240.363281 196.476562 C 238.054688 187.679688 235.132812 179.066406 230.601562 170.78125 Z M 274.601562 217.222656 C 278.535156 217.792969 280.296875 216.304688 281.363281 212.828125 C 284.410156 202.902344 285.449219 192.929688 283.890625 182.613281 C 283.121094 177.496094 279.65625 175.042969 275.710938 172.867188 C 274.902344 172.417969 273.671875 172.050781 272.667969 173.308594 C 276.714844 187.691406 276.511719 202.433594 274.59375 217.222656 Z M 220.742188 177.128906 C 215.328125 180.382812 212.117188 183.625 212.945312 189.386719 C 213.101562 190.4375 212.988281 191.535156 213.207031 192.566406 C 214.976562 201.175781 217.777344 209.398438 222.625 216.808594 C 223.179688 217.652344 224.097656 218.257812 224.914062 219.035156 C 227.125 218.496094 229.140625 218.003906 231.515625 217.421875 C 228.894531 210.789062 226.253906 204.574219 223.980469 198.234375 C 221.667969 191.792969 220.988281 185.007812 220.742188 177.136719 Z M 56.679688 244.164062 C 60.351562 242.09375 63.4375 240.667969 66.167969 238.726562 C 68.886719 236.804688 72.644531 236.523438 74.800781 233.300781 C 74.117188 231.726562 73.492188 230.160156 72.769531 228.648438 C 71.96875 226.992188 71.070312 225.382812 70.015625 223.367188 C 66.363281 225.054688 63.050781 226.417969 59.890625 228.089844 C 57.09375 229.5625 54.46875 231.359375 51.800781 233.074219 C 51.496094 233.265625 51.414062 233.789062 50.976562 234.65625 C 52.648438 237.441406 54.472656 240.476562 56.6875 244.171875 Z M 287.171875 180.640625 C 287.171875 186.78125 287.566406 192.480469 287.066406 198.101562 C 286.546875 203.957031 285.164062 209.738281 284.160156 215.558594 C 291.75 216.992188 292.816406 214.539062 293.71875 209.140625 C 294.589844 203.921875 294.9375 198.59375 295.121094 193.296875 C 295.199219 191.042969 294.519531 188.675781 293.765625 186.503906 C 292.769531 183.597656 290.621094 181.714844 287.171875 180.640625 Z M 202.609375 193.207031 C 202.019531 193.207031 201.546875 193.066406 201.226562 193.226562 C 196.078125 195.761719 196.054688 200.789062 196.183594 205.285156 C 196.289062 209.273438 198.140625 213.136719 200.453125 216.507812 C 203.65625 221.171875 206.148438 221.867188 213.148438 220.066406 C 206.976562 212 203.710938 202.945312 202.609375 193.207031 Z M 300.992188 216.21875 C 303.632812 214.324219 304.378906 211.886719 304.835938 209.359375 C 305.214844 207.265625 305.253906 205.117188 305.65625 203.039062 C 306.816406 196.976562 304.011719 192.335938 300.355469 188.015625 C 299.890625 187.46875 298.914062 187.363281 297.691406 186.855469 C 298.605469 196.792969 297.53125 206.132812 295.253906 215.679688 C 297.609375 215.902344 299.46875 216.085938 300.984375 216.234375 Z M 305.558594 216.347656 C 309.601562 217.804688 312.925781 217.082031 316.070312 215.847656 C 317.785156 215.171875 319.292969 213.839844 320.726562 212.601562 C 322.035156 211.480469 322.238281 209.851562 321.332031 208.585938 C 318.21875 204.253906 314.042969 201.15625 309.320312 198.015625 C 308.085938 204.316406 308.332031 210.347656 305.566406 216.347656 Z M 91.261719 229.542969 C 86.527344 231.734375 81.609375 232.464844 78.28125 236.535156 C 79.777344 239.992188 81.5625 242.996094 83.871094 245.863281 C 84.945312 245.429688 85.777344 245.230469 86.441406 244.796875 C 89.433594 242.84375 92.378906 240.828125 95.398438 238.792969 C 95.09375 235.34375 93.3125 232.78125 91.261719 229.542969 Z M 86.296875 255.890625 C 85.816406 254.71875 85.59375 253.898438 85.179688 253.195312 C 83.570312 250.484375 82.796875 250.148438 80.074219 251.320312 C 76.773438 252.738281 73.535156 254.324219 70.269531 255.828125 C 68.511719 256.636719 66.878906 257.578125 65.878906 259.585938 C 66.976562 262.191406 68.238281 264.796875 70.859375 266.933594 C 75.914062 263.316406 80.867188 259.769531 86.296875 255.890625 Z M 221 220.328125 C 219.125 216.800781 217.714844 214.421875 216.5625 211.929688 C 215.320312 209.230469 214.230469 206.449219 213.242188 203.648438 C 212.320312 201.050781 211.625 198.367188 210.839844 195.726562 C 210.023438 192.996094 210.910156 189.839844 208.804688 186.828125 C 207.839844 188.210938 206.738281 189.132812 206.554688 190.207031 C 206.164062 192.476562 205.839844 194.890625 206.203125 197.125 C 207.347656 204.125 209.828125 210.664062 214.148438 216.386719 C 215.039062 217.566406 215.980469 218.789062 217.144531 219.652344 C 217.847656 220.171875 219.042969 220.027344 220.996094 220.328125 Z M 196.800781 216.726562 C 195.671875 213.566406 194.617188 210.347656 193.367188 207.210938 C 192.546875 205.160156 190.667969 204.394531 188.660156 205.25 C 186.714844 206.078125 184.8125 207.0625 183.027344 208.191406 C 181.054688 209.433594 180.746094 211.246094 182.046875 213.09375 C 184.460938 216.519531 187.910156 218.566406 191.746094 219.992188 C 193.058594 220.476562 194.246094 220.039062 195.121094 218.902344 C 195.636719 218.234375 196.15625 217.566406 196.800781 216.726562 Z M 178.148438 189.671875 C 176.019531 190.949219 176.195312 192.726562 176.140625 194.398438 C 175.976562 199.152344 175.921875 203.902344 177.71875 208.515625 C 180.859375 206.394531 183.625 204.535156 186.984375 202.273438 C 183.4375 198.277344 183.070312 192.433594 178.148438 189.671875 Z M 88.050781 215.792969 C 88.800781 219.289062 90.144531 222.246094 92.855469 224.921875 C 95.957031 223.136719 98.839844 221.472656 101.84375 219.738281 C 101.34375 216.527344 100.082031 213.949219 98.523438 211.234375 C 94.882812 212.707031 91.15625 213.488281 88.050781 215.792969 Z M 98.964844 239.902344 C 100.683594 243.101562 101.148438 246.101562 103.445312 248.355469 C 106.597656 247.324219 109.855469 247.253906 112.546875 245.195312 C 111.457031 241.691406 110.707031 238.171875 107.566406 235.519531 C 104.816406 236.921875 102.214844 238.242188 98.964844 239.902344 Z M 109.695312 230.988281 C 113.417969 229.375 116.851562 228.410156 119.464844 226.015625 C 118.726562 223.007812 117.503906 220.496094 115.796875 218.488281 C 112.8125 219.640625 109.722656 220.828125 106.667969 222.007812 C 106.351562 225.511719 107.847656 227.960938 109.695312 230.980469 Z M 179.847656 216.375 C 180.136719 220.488281 181.34375 223.742188 183.828125 226.480469 C 185.296875 228.09375 187.179688 228.390625 188.949219 227.070312 C 190.050781 226.25 190.808594 224.96875 191.757812 223.847656 C 187.679688 221.289062 183.976562 218.964844 179.847656 216.375 Z M 179.847656 216.375 " fill-opacity="1" fill-rule="nonzero"/></g></svg>