<svg xmlns="http://www.w3.org/2000/svg" xmlns:xlink="http://www.w3.org/1999/xlink" width="500" zoomAndPan="magnify" viewBox="0 0 375 374.999991" height="500" preserveAspectRatio="xMidYMid meet" version="1.0"><defs><g/><clipPath id="bbfd2ad101"><path d="M 40 131 L 336 131 L 336 303 L 40 303 Z M 40 131 " clip-rule="nonzero"/></clipPath><clipPath id="4e5e197e99"><path d="M 88.421875 53.1875 L 356.425781 156.5625 L 286.789062 337.097656 L 18.785156 233.722656 Z M 88.421875 53.1875 " clip-rule="nonzero"/></clipPath><clipPath id="829a0edce7"><path d="M 88.421875 53.1875 L 356.425781 156.5625 L 286.789062 337.097656 L 18.785156 233.722656 Z M 88.421875 53.1875 " clip-rule="nonzero"/></clipPath><clipPath id="d767c9a33e"><path d="M 333.957031 197.710938 C 340.621094 175.070312 329.238281 150.582031 307.742188 140.949219 C 291.144531 133.453125 272.777344 136.234375 259.394531 146.296875 C 252.726562 151.273438 243.496094 150.882812 237.015625 145.582031 C 232.027344 141.464844 226.179688 137.992188 219.820312 135.539062 C 201.160156 128.339844 181.160156 130.613281 165.070312 140.117188 C 155.746094 145.65625 144.179688 145.335938 134.824219 139.902344 C 130.765625 137.484375 126.285156 135.511719 121.605469 134.070312 C 91.246094 124.675781 58.34375 139.875 45.660156 168.96875 C 31.214844 202.003906 47.363281 240.023438 80.65625 252.863281 C 94.4375 258.183594 108.894531 258.277344 121.890625 254.277344 C 135.027344 250.207031 149.074219 256.113281 155.300781 268.382812 C 162.589844 282.640625 175.289062 294.238281 191.945312 299.691406 C 222.5625 309.671875 256.332031 294.441406 269.070312 264.886719 C 270.527344 261.425781 271.6875 258.101562 272.574219 254.542969 C 275.464844 242.625 284.808594 233.5625 296.894531 231.28125 C 313.800781 228.179688 328.652344 215.882812 333.957031 197.710938 Z M 333.957031 197.710938 " clip-rule="nonzero"/></clipPath><clipPath id="ce55a771bb"><path d="M 129 108 L 157 108 L 157 136 L 129 136 Z M 129 108 " clip-rule="nonzero"/></clipPath><clipPath id="7bbd4f2e39"><path d="M 88.421875 53.1875 L 356.425781 156.5625 L 286.789062 337.097656 L 18.785156 233.722656 Z M 88.421875 53.1875 " clip-rule="nonzero"/></clipPath><clipPath id="c433d14254"><path d="M 88.421875 53.1875 L 356.425781 156.5625 L 286.789062 337.097656 L 18.785156 233.722656 Z M 88.421875 53.1875 " clip-rule="nonzero"/></clipPath><clipPath id="5b5146c036"><path d="M 155.75 127.023438 C 155.429688 127.851562 155.03125 128.640625 154.554688 129.390625 C 154.082031 130.140625 153.539062 130.835938 152.925781 131.480469 C 152.3125 132.125 151.644531 132.699219 150.917969 133.210938 C 150.191406 133.722656 149.421875 134.160156 148.613281 134.519531 C 147.800781 134.878906 146.960938 135.15625 146.09375 135.351562 C 145.226562 135.546875 144.351562 135.652344 143.464844 135.675781 C 142.574219 135.695312 141.695312 135.632812 140.820312 135.480469 C 139.945312 135.328125 139.09375 135.09375 138.265625 134.773438 C 137.4375 134.453125 136.648438 134.054688 135.898438 133.582031 C 135.148438 133.105469 134.449219 132.5625 133.808594 131.949219 C 133.164062 131.339844 132.585938 130.667969 132.074219 129.941406 C 131.5625 129.21875 131.128906 128.449219 130.769531 127.636719 C 130.410156 126.824219 130.132812 125.984375 129.9375 125.121094 C 129.742188 124.253906 129.632812 123.375 129.613281 122.488281 C 129.589844 121.601562 129.65625 120.71875 129.808594 119.84375 C 129.960938 118.96875 130.195312 118.117188 130.515625 117.289062 C 130.835938 116.460938 131.230469 115.671875 131.707031 114.921875 C 132.179688 114.171875 132.726562 113.476562 133.335938 112.832031 C 133.949219 112.1875 134.617188 111.613281 135.34375 111.101562 C 136.070312 110.589844 136.839844 110.152344 137.652344 109.792969 C 138.460938 109.433594 139.300781 109.15625 140.167969 108.960938 C 141.035156 108.765625 141.910156 108.660156 142.800781 108.636719 C 143.6875 108.617188 144.566406 108.679688 145.441406 108.832031 C 146.316406 108.984375 147.167969 109.21875 148 109.539062 C 148.828125 109.859375 149.617188 110.257812 150.367188 110.730469 C 151.117188 111.207031 151.8125 111.75 152.457031 112.363281 C 153.097656 112.972656 153.675781 113.644531 154.1875 114.371094 C 154.699219 115.09375 155.132812 115.863281 155.496094 116.675781 C 155.855469 117.488281 156.132812 118.328125 156.324219 119.191406 C 156.519531 120.058594 156.628906 120.9375 156.648438 121.824219 C 156.671875 122.710938 156.605469 123.59375 156.457031 124.46875 C 156.304688 125.34375 156.066406 126.195312 155.75 127.023438 Z M 155.75 127.023438 " clip-rule="nonzero"/></clipPath><clipPath id="573b3f3000"><path d="M 217 106 L 234 106 L 234 123 L 217 123 Z M 217 106 " clip-rule="nonzero"/></clipPath><clipPath id="ea58ebf637"><path d="M 88.421875 53.1875 L 356.425781 156.5625 L 286.789062 337.097656 L 18.785156 233.722656 Z M 88.421875 53.1875 " clip-rule="nonzero"/></clipPath><clipPath id="5ee8e3d034"><path d="M 88.421875 53.1875 L 356.425781 156.5625 L 286.789062 337.097656 L 18.785156 233.722656 Z M 88.421875 53.1875 " clip-rule="nonzero"/></clipPath><clipPath id="9dc56ba6cd"><path d="M 232.636719 117.460938 C 232.449219 117.957031 232.210938 118.425781 231.925781 118.875 C 231.644531 119.320312 231.320312 119.738281 230.953125 120.121094 C 230.589844 120.503906 230.1875 120.847656 229.757812 121.15625 C 229.324219 121.460938 228.863281 121.71875 228.378906 121.933594 C 227.894531 122.148438 227.394531 122.3125 226.878906 122.429688 C 226.359375 122.546875 225.839844 122.609375 225.308594 122.625 C 224.777344 122.636719 224.253906 122.597656 223.730469 122.507812 C 223.207031 122.417969 222.699219 122.277344 222.207031 122.085938 C 221.710938 121.894531 221.242188 121.65625 220.792969 121.375 C 220.347656 121.089844 219.929688 120.765625 219.546875 120.402344 C 219.164062 120.035156 218.820312 119.636719 218.515625 119.203125 C 218.207031 118.769531 217.949219 118.3125 217.734375 117.828125 C 217.519531 117.34375 217.355469 116.84375 217.238281 116.324219 C 217.121094 115.808594 217.058594 115.285156 217.042969 114.757812 C 217.03125 114.226562 217.070312 113.699219 217.160156 113.179688 C 217.25 112.65625 217.390625 112.148438 217.582031 111.652344 C 217.773438 111.160156 218.011719 110.6875 218.292969 110.242188 C 218.578125 109.792969 218.902344 109.378906 219.265625 108.996094 C 219.632812 108.609375 220.03125 108.265625 220.464844 107.960938 C 220.898438 107.65625 221.355469 107.394531 221.839844 107.183594 C 222.324219 106.96875 222.824219 106.800781 223.34375 106.683594 C 223.859375 106.570312 224.382812 106.503906 224.910156 106.492188 C 225.441406 106.480469 225.96875 106.519531 226.488281 106.609375 C 227.011719 106.699219 227.519531 106.839844 228.015625 107.03125 C 228.507812 107.222656 228.980469 107.457031 229.425781 107.742188 C 229.875 108.023438 230.289062 108.347656 230.671875 108.714844 C 231.058594 109.078125 231.402344 109.480469 231.707031 109.910156 C 232.011719 110.34375 232.273438 110.804688 232.484375 111.289062 C 232.699219 111.773438 232.867188 112.273438 232.984375 112.789062 C 233.097656 113.308594 233.164062 113.828125 233.175781 114.359375 C 233.1875 114.890625 233.148438 115.414062 233.058594 115.9375 C 232.96875 116.460938 232.828125 116.96875 232.636719 117.460938 Z M 232.636719 117.460938 " clip-rule="nonzero"/></clipPath><clipPath id="d8504064b8"><path d="M 289 248 L 315 248 L 315 275 L 289 275 Z M 289 248 " clip-rule="nonzero"/></clipPath><clipPath id="bc8593941b"><path d="M 88.421875 53.1875 L 356.425781 156.5625 L 286.789062 337.097656 L 18.785156 233.722656 Z M 88.421875 53.1875 " clip-rule="nonzero"/></clipPath><clipPath id="f74708cd9b"><path d="M 88.421875 53.1875 L 356.425781 156.5625 L 286.789062 337.097656 L 18.785156 233.722656 Z M 88.421875 53.1875 " clip-rule="nonzero"/></clipPath><clipPath id="82abfc805d"><path d="M 313.847656 265.957031 C 313.546875 266.734375 313.171875 267.480469 312.722656 268.183594 C 312.277344 268.890625 311.765625 269.546875 311.1875 270.152344 C 310.613281 270.757812 309.984375 271.300781 309.300781 271.78125 C 308.617188 272.261719 307.894531 272.671875 307.128906 273.011719 C 306.363281 273.351562 305.574219 273.609375 304.761719 273.792969 C 303.945312 273.976562 303.121094 274.078125 302.285156 274.101562 C 301.449219 274.121094 300.617188 274.058594 299.796875 273.917969 C 298.972656 273.773438 298.171875 273.550781 297.390625 273.25 C 296.609375 272.949219 295.867188 272.578125 295.164062 272.128906 C 294.457031 271.683594 293.800781 271.171875 293.195312 270.59375 C 292.589844 270.019531 292.046875 269.386719 291.566406 268.703125 C 291.085938 268.023438 290.675781 267.296875 290.335938 266.535156 C 289.996094 265.769531 289.734375 264.980469 289.554688 264.164062 C 289.371094 263.347656 289.269531 262.523438 289.246094 261.6875 C 289.226562 260.851562 289.289062 260.023438 289.429688 259.199219 C 289.574219 258.378906 289.796875 257.574219 290.097656 256.796875 C 290.398438 256.015625 290.769531 255.273438 291.21875 254.566406 C 291.664062 253.859375 292.175781 253.207031 292.753906 252.601562 C 293.328125 251.996094 293.960938 251.453125 294.640625 250.96875 C 295.324219 250.488281 296.050781 250.078125 296.8125 249.742188 C 297.578125 249.402344 298.367188 249.140625 299.183594 248.957031 C 299.996094 248.773438 300.824219 248.671875 301.660156 248.652344 C 302.496094 248.632812 303.324219 248.691406 304.148438 248.835938 C 304.96875 248.980469 305.773438 249.199219 306.550781 249.5 C 307.332031 249.800781 308.074219 250.175781 308.78125 250.625 C 309.488281 251.070312 310.140625 251.582031 310.746094 252.15625 C 311.351562 252.734375 311.894531 253.363281 312.378906 254.046875 C 312.859375 254.730469 313.269531 255.453125 313.605469 256.21875 C 313.945312 256.980469 314.207031 257.773438 314.390625 258.585938 C 314.574219 259.402344 314.675781 260.226562 314.695312 261.0625 C 314.714844 261.898438 314.65625 262.726562 314.511719 263.550781 C 314.367188 264.375 314.148438 265.175781 313.847656 265.957031 Z M 313.847656 265.957031 " clip-rule="nonzero"/></clipPath><clipPath id="0e549b7ebb"><rect x="0" width="123" y="0" height="39"/></clipPath></defs><g clip-path="url(#bbfd2ad101)"><g clip-path="url(#4e5e197e99)"><g clip-path="url(#829a0edce7)"><g clip-path="url(#d767c9a33e)"><path fill="#4b5ae4" d="M 71.285156 20.789062 L -30.902344 285.714844 L 300.550781 413.5625 L 402.738281 148.636719 Z M 71.285156 20.789062 " fill-opacity="1" fill-rule="nonzero"/></g></g></g></g><g clip-path="url(#ce55a771bb)"><g clip-path="url(#7bbd4f2e39)"><g clip-path="url(#c433d14254)"><g clip-path="url(#5b5146c036)"><path fill="#4b5ae4" d="M 133.097656 99.523438 L 120.496094 132.191406 L 153.164062 144.789062 L 165.765625 112.121094 Z M 133.097656 99.523438 " fill-opacity="1" fill-rule="nonzero"/></g></g></g></g><g clip-path="url(#573b3f3000)"><g clip-path="url(#ea58ebf637)"><g clip-path="url(#5ee8e3d034)"><g clip-path="url(#9dc56ba6cd)"><path fill="#4b5ae4" d="M 219.125 101.054688 L 211.605469 120.542969 L 231.097656 128.0625 L 238.613281 108.570312 Z M 219.125 101.054688 " fill-opacity="1" fill-rule="nonzero"/></g></g></g></g><g clip-path="url(#d8504064b8)"><g clip-path="url(#bc8593941b)"><g clip-path="url(#f74708cd9b)"><g clip-path="url(#82abfc805d)"><path fill="#4b5ae4" d="M 292.527344 240.074219 L 280.667969 270.820312 L 311.414062 282.679688 L 323.273438 251.933594 Z M 292.527344 240.074219 " fill-opacity="1" fill-rule="nonzero"/></g></g></g></g><path fill="#1800ad" d="M 112.050781 121.367188 C 112.726562 118.703125 113.203125 116.347656 113.949219 114.082031 C 114.441406 112.59375 115.152344 111.117188 116.078125 109.859375 C 117.703125 107.652344 119.804688 107.503906 122.300781 109.226562 C 123.320312 109.929688 123.839844 111.503906 125.921875 110.925781 C 126.582031 109.21875 127.207031 107.230469 128.105469 105.375 C 129.027344 103.460938 130.117188 101.394531 132.550781 101.199219 C 135.09375 101 136.289062 103.011719 137.265625 104.917969 C 138.230469 106.808594 139.144531 108.777344 139.734375 110.808594 C 142.988281 122.082031 146.1875 133.359375 149.28125 144.675781 C 150.757812 150.0625 151.972656 155.523438 154.6875 161.019531 C 155.910156 160.085938 157.035156 159.433594 157.878906 158.53125 C 159.886719 156.386719 161.695312 154.0625 163.699219 151.917969 C 174.3125 140.570312 186.65625 145.015625 193.328125 155.152344 C 195.902344 159.066406 197.019531 163.953125 198.75 168.410156 C 199.210938 169.597656 199.5 170.847656 199.992188 172.480469 C 203.867188 171.199219 206.707031 169.414062 209.6875 167.023438 C 216.105469 161.871094 221.179688 155.179688 228.414062 150.996094 C 230.226562 149.949219 231.515625 147.953125 233.347656 146.976562 C 239.914062 143.46875 245.488281 138.371094 251.878906 134.835938 C 262.621094 128.894531 276.167969 127.671875 286.9375 139.480469 C 289.9375 142.765625 293.285156 144.921875 297.707031 145.730469 C 299.710938 146.097656 301.917969 147.066406 303.351562 148.453125 C 306.683594 151.679688 310.402344 154.089844 314.660156 155.832031 C 315.871094 156.332031 317.121094 156.972656 318.078125 157.851562 C 320.882812 160.429688 324.101562 162.1875 327.609375 163.613281 C 329.289062 164.289062 331.222656 165.238281 332.160156 166.652344 C 337.023438 173.90625 344.25 178.609375 350.542969 184.324219 C 352.910156 186.46875 355.273438 188.667969 357.3125 191.109375 C 360.488281 194.917969 360.179688 199.039062 356.523438 202.476562 C 350.878906 207.789062 344.003906 209.292969 336.503906 208.464844 C 333.59375 208.148438 330.703125 207.558594 327.785156 207.3125 C 316.785156 206.382812 305.910156 207.21875 295.238281 210.046875 C 285.769531 212.554688 276.25 212.484375 266.648438 211.136719 C 262.15625 210.503906 257.671875 209.695312 253.152344 209.386719 C 249.453125 209.132812 245.699219 209.328125 241.996094 209.625 C 239.625 209.820312 237.277344 210.480469 234.945312 211.058594 C 227.394531 212.941406 219.773438 214.011719 211.964844 213.511719 C 210.683594 213.433594 209.378906 213.609375 207.675781 213.695312 C 207.386719 215.972656 207.210938 218.039062 206.847656 220.070312 C 206.332031 222.945312 205.882812 225.855469 205.027344 228.632812 C 204.0625 231.789062 201.90625 234.363281 199.085938 235.9375 C 188.816406 241.679688 178.339844 242.328125 167.992188 236.148438 C 164.332031 233.96875 160.878906 231.429688 157.503906 228.828125 C 153.046875 225.40625 148.199219 223.734375 142.582031 224.652344 C 139.953125 225.082031 137.273438 225.300781 134.707031 225.96875 C 127.988281 227.699219 121.324219 229.625 114.222656 231.585938 C 110.777344 239.902344 103.1875 243.035156 95.128906 245.46875 C 92.324219 246.3125 89.492188 247.09375 86.660156 247.894531 C 71.496094 252.167969 58.316406 260.019531 46.335938 270.085938 C 44.761719 271.414062 42.984375 272.503906 40.894531 273.996094 C 39.179688 272.097656 37.597656 270.699219 36.445312 269.011719 C 33.894531 265.257812 31.476562 261.417969 29.171875 257.511719 C 23.617188 248.089844 18.121094 238.636719 12.691406 229.144531 C 10.84375 225.90625 11 224.335938 13.746094 222.152344 C 16.65625 219.851562 19.707031 217.566406 23.019531 215.945312 C 42.175781 206.550781 61.691406 197.941406 81.605469 190.265625 C 83.59375 189.503906 85.640625 188.753906 87.734375 188.4375 C 90.070312 188.078125 92.804688 187.453125 94.820312 188.289062 C 101.570312 191.066406 106.046875 186.777344 110.722656 183.566406 C 112.207031 182.546875 113.070312 180.007812 113.386719 178.03125 C 114.097656 173.519531 113.660156 168.984375 112.171875 164.605469 C 110.546875 159.804688 108.902344 155.011719 107.355469 150.1875 C 105.308594 143.804688 103.832031 137.324219 104.339844 130.539062 C 104.417969 129.472656 104.394531 128.394531 104.535156 127.347656 C 105.132812 123.019531 106.082031 122.238281 112.042969 121.378906 Z M 201.75 210.207031 C 199.148438 213.503906 197.554688 215.523438 195.964844 217.53125 C 189.554688 225.582031 181.765625 224.96875 176.921875 216.027344 C 176.800781 215.789062 176.675781 215.550781 176.570312 215.304688 C 171.234375 202.328125 167.945312 188.949219 168.921875 174.792969 C 169.046875 172.984375 169.574219 171.09375 170.355469 169.457031 C 171.910156 166.195312 175.058594 165.203125 178.445312 166.46875 C 180.570312 167.269531 182.003906 168.738281 183.113281 170.636719 C 185.398438 174.546875 187.613281 178.503906 190.011719 182.335938 C 190.796875 183.585938 191.78125 185.132812 194.039062 184.175781 C 196.371094 179.402344 195.394531 174.382812 194.152344 169.5 C 192.851562 164.351562 191.640625 158.941406 187.648438 155.101562 C 180.929688 148.640625 174.390625 147.726562 167.367188 154.695312 C 166.425781 155.636719 165.554688 156.65625 164.71875 157.695312 C 162.214844 160.808594 159.753906 163.953125 157.257812 167.066406 C 155.136719 169.710938 152.527344 169.359375 151.121094 166.167969 C 150.476562 164.710938 149.96875 163.179688 149.546875 161.640625 C 146.335938 150.082031 143.234375 138.484375 139.953125 126.949219 C 138.503906 121.835938 136.78125 116.78125 135.058594 111.742188 C 134.664062 110.589844 133.773438 109.597656 132.585938 107.679688 C 129.835938 114.792969 127.929688 120.734375 130.1875 127.558594 C 132.613281 134.890625 134.3125 142.460938 136.386719 149.914062 C 137.597656 154.273438 138.988281 158.589844 140.210938 162.953125 C 140.824219 165.160156 140.128906 166.804688 138.792969 166.828125 C 137.140625 166.875 136.542969 165.6875 136.035156 164.4375 C 135.628906 163.453125 135.25 162.449219 134.960938 161.421875 C 132.832031 153.992188 130.75 146.546875 128.632812 139.117188 C 127.09375 133.738281 125.589844 128.339844 123.9375 122.984375 C 123.011719 119.988281 121.921875 117.015625 118.882812 114.246094 C 116.472656 121.992188 117 129.007812 119.058594 135.960938 C 121.464844 144.136719 124.128906 152.242188 126.601562 160.410156 C 126.890625 161.378906 126.75 162.511719 126.636719 163.558594 C 126.582031 163.988281 126.074219 164.691406 125.746094 164.703125 C 125.035156 164.726562 124.085938 164.605469 123.65625 164.148438 C 122.960938 163.402344 122.449219 162.378906 122.125 161.394531 C 120.957031 157.851562 119.945312 154.265625 118.777344 150.722656 C 116.691406 144.402344 114.566406 138.089844 112.375 131.804688 C 111.953125 130.589844 111.398438 129.289062 109.359375 129.308594 C 109.203125 130.820312 108.851562 132.367188 108.921875 133.886719 C 109.035156 136.277344 109.132812 138.742188 109.773438 141.015625 C 111.574219 147.425781 113.792969 153.722656 115.574219 160.128906 C 116.710938 164.21875 117.933594 168.421875 118.125 172.613281 C 118.644531 184.199219 116.183594 186.734375 107.585938 191.03125 C 105.28125 192.183594 102.441406 192.554688 101 194.960938 C 103.707031 205.0625 109.667969 220.789062 113.0625 226.65625 C 114.707031 226.355469 116.535156 226.128906 118.292969 225.679688 C 124.492188 224.097656 130.644531 222.304688 136.867188 220.816406 C 145.597656 218.734375 153.765625 219.542969 160.957031 225.652344 C 163.585938 227.886719 166.601562 229.671875 169.519531 231.550781 C 177.566406 236.738281 185.847656 237.363281 194.550781 233.0625 C 197.90625 231.402344 200.175781 229.074219 201.230469 225.574219 C 202.558594 221.167969 202.8125 216.695312 201.75 210.199219 Z M 291.84375 206.742188 C 292.503906 203.957031 293.171875 201.398438 293.691406 198.820312 C 295.984375 187.410156 294.753906 175.972656 293.566406 164.585938 C 293.074219 159.882812 292.003906 155.039062 290.15625 150.707031 C 282.832031 133.429688 266.394531 130.589844 252.539062 138.484375 C 249.609375 140.15625 246.796875 142.335938 245.539062 145.96875 C 254.789062 165.324219 259.695312 186.046875 264.582031 206.910156 C 273.558594 208.675781 282.191406 209.539062 291.84375 206.75 Z M 241.664062 146.988281 C 235.554688 148.234375 233.371094 151.699219 233.398438 156.859375 C 233.40625 158.976562 233.277344 161.097656 233.453125 163.199219 C 234.71875 178.328125 240.492188 191.921875 247.554688 205.160156 C 251.632812 205.722656 255.5 206.160156 259.824219 205.730469 C 259.457031 196.203125 256.152344 187.761719 253.882812 179.144531 C 250.992188 168.128906 247.332031 157.351562 241.664062 146.976562 Z M 296.742188 205.117188 C 301.664062 205.828125 303.871094 203.964844 305.207031 199.613281 C 309.023438 187.191406 310.324219 174.707031 308.371094 161.792969 C 307.40625 155.382812 303.070312 152.316406 298.128906 149.589844 C 297.121094 149.027344 295.582031 148.570312 294.324219 150.144531 C 299.386719 168.148438 299.132812 186.601562 296.734375 205.117188 Z M 229.320312 154.925781 C 222.542969 158.996094 218.523438 163.058594 219.5625 170.265625 C 219.753906 171.585938 219.613281 172.957031 219.886719 174.25 C 222.101562 185.027344 225.609375 195.320312 231.675781 204.597656 C 232.371094 205.652344 233.523438 206.410156 234.542969 207.382812 C 237.3125 206.707031 239.835938 206.089844 242.804688 205.363281 C 239.527344 197.0625 236.222656 189.28125 233.371094 181.34375 C 230.480469 173.28125 229.628906 164.789062 229.320312 154.933594 Z M 23.941406 238.839844 C 28.539062 236.246094 32.398438 234.460938 35.820312 232.035156 C 39.222656 229.625 43.925781 229.273438 46.625 225.238281 C 45.773438 223.269531 44.988281 221.308594 44.082031 219.417969 C 43.082031 217.34375 41.957031 215.332031 40.636719 212.808594 C 36.066406 214.917969 31.917969 216.625 27.960938 218.714844 C 24.460938 220.5625 21.171875 222.8125 17.832031 224.957031 C 17.453125 225.195312 17.347656 225.855469 16.804688 226.9375 C 18.898438 230.425781 21.183594 234.222656 23.953125 238.847656 Z M 312.476562 159.320312 C 312.476562 167.003906 312.96875 174.144531 312.347656 181.175781 C 311.695312 188.507812 309.964844 195.746094 308.707031 203.03125 C 318.210938 204.824219 319.546875 201.757812 320.671875 194.996094 C 321.761719 188.464844 322.203125 181.792969 322.429688 175.164062 C 322.527344 172.339844 321.671875 169.378906 320.734375 166.660156 C 319.484375 163.023438 316.792969 160.667969 312.476562 159.320312 Z M 206.621094 175.050781 C 205.882812 175.050781 205.292969 174.875 204.886719 175.074219 C 198.445312 178.25 198.417969 184.542969 198.574219 190.171875 C 198.707031 195.164062 201.027344 200 203.921875 204.21875 C 207.929688 210.058594 211.050781 210.925781 219.816406 208.675781 C 212.089844 198.574219 208 187.242188 206.621094 175.050781 Z M 329.78125 203.859375 C 333.085938 201.484375 334.015625 198.433594 334.589844 195.269531 C 335.0625 192.648438 335.117188 189.960938 335.617188 187.355469 C 337.066406 179.769531 333.558594 173.960938 328.980469 168.550781 C 328.398438 167.867188 327.175781 167.734375 325.648438 167.101562 C 326.789062 179.542969 325.445312 191.234375 322.597656 203.183594 C 325.542969 203.464844 327.871094 203.691406 329.769531 203.875 Z M 335.492188 204.015625 C 340.558594 205.84375 344.714844 204.941406 348.65625 203.394531 C 350.800781 202.546875 352.691406 200.878906 354.484375 199.332031 C 356.117188 197.925781 356.375 195.886719 355.238281 194.300781 C 351.34375 188.878906 346.113281 185 340.207031 181.070312 C 338.660156 188.957031 338.964844 196.507812 335.503906 204.015625 Z M 67.230469 220.535156 C 61.304688 223.277344 55.152344 224.191406 50.984375 229.292969 C 52.859375 233.617188 55.089844 237.378906 57.984375 240.96875 C 59.328125 240.421875 60.367188 240.175781 61.199219 239.632812 C 64.945312 237.1875 68.628906 234.664062 72.410156 232.113281 C 72.03125 227.796875 69.800781 224.589844 67.230469 220.535156 Z M 61.015625 253.523438 C 60.417969 252.054688 60.136719 251.023438 59.617188 250.144531 C 57.605469 246.753906 56.636719 246.332031 53.226562 247.796875 C 49.09375 249.574219 45.042969 251.5625 40.953125 253.441406 C 38.757812 254.453125 36.707031 255.632812 35.460938 258.144531 C 36.832031 261.40625 38.414062 264.667969 41.691406 267.339844 C 48.023438 262.8125 54.21875 258.375 61.015625 253.523438 Z M 229.644531 209 C 227.296875 204.589844 225.53125 201.609375 224.089844 198.488281 C 222.53125 195.109375 221.171875 191.628906 219.929688 188.121094 C 218.777344 184.871094 217.910156 181.511719 216.921875 178.207031 C 215.902344 174.785156 217.011719 170.839844 214.375 167.066406 C 213.167969 168.796875 211.789062 169.949219 211.5625 171.296875 C 211.070312 174.136719 210.664062 177.160156 211.121094 179.953125 C 212.554688 188.71875 215.65625 196.90625 221.066406 204.070312 C 222.179688 205.546875 223.359375 207.078125 224.820312 208.15625 C 225.699219 208.808594 227.191406 208.625 229.636719 209 Z M 199.351562 204.492188 C 197.933594 200.535156 196.617188 196.507812 195.050781 192.578125 C 194.023438 190.011719 191.675781 189.054688 189.160156 190.125 C 186.726562 191.164062 184.34375 192.394531 182.109375 193.808594 C 179.640625 195.367188 179.253906 197.632812 180.878906 199.945312 C 183.902344 204.238281 188.21875 206.796875 193.019531 208.578125 C 194.664062 209.1875 196.148438 208.640625 197.25 207.21875 C 197.890625 206.382812 198.539062 205.546875 199.351562 204.492188 Z M 176 170.628906 C 173.335938 172.226562 173.554688 174.453125 173.484375 176.542969 C 173.28125 182.496094 173.210938 188.4375 175.464844 194.214844 C 179.394531 191.558594 182.855469 189.230469 187.058594 186.398438 C 182.621094 181.398438 182.164062 174.082031 176 170.628906 Z M 63.214844 203.324219 C 64.15625 207.699219 65.835938 211.402344 69.226562 214.75 C 73.113281 212.519531 76.71875 210.433594 80.480469 208.261719 C 79.855469 204.246094 78.273438 201.019531 76.320312 197.617188 C 71.769531 199.464844 67.101562 200.4375 63.214844 203.324219 Z M 76.875 233.503906 C 79.03125 237.511719 79.609375 241.265625 82.484375 244.089844 C 86.433594 242.796875 90.511719 242.707031 93.878906 240.132812 C 92.515625 235.746094 91.574219 231.339844 87.644531 228.019531 C 84.199219 229.777344 80.945312 231.429688 76.875 233.503906 Z M 90.308594 222.347656 C 94.96875 220.324219 99.269531 219.121094 102.539062 216.121094 C 101.613281 212.355469 100.082031 209.210938 97.949219 206.699219 C 94.210938 208.140625 90.34375 209.625 86.519531 211.101562 C 86.125 215.488281 87.996094 218.558594 90.308594 222.339844 Z M 178.128906 204.050781 C 178.488281 209.203125 180 213.273438 183.113281 216.703125 C 184.949219 218.726562 187.304688 219.09375 189.519531 217.441406 C 190.902344 216.414062 191.851562 214.8125 193.039062 213.40625 C 187.929688 210.207031 183.296875 207.296875 178.128906 204.050781 Z M 178.128906 204.050781 " fill-opacity="1" fill-rule="nonzero"/><g fill="#fcfdf2" fill-opacity="1"><g transform="translate(95.138539, 220.589519)"><g><path d="M 1.0625 -2.640625 C -0.394531 -3.046875 -1.597656 -3.835938 -2.546875 -5.015625 C -3.492188 -6.191406 -4.304688 -7.570312 -4.984375 -9.15625 C -5.660156 -10.738281 -6.242188 -12.394531 -6.734375 -14.125 C -7.222656 -15.851562 -7.71875 -17.492188 -8.21875 -19.046875 C -8.71875 -20.597656 -9.28125 -21.878906 -9.90625 -22.890625 C -10.394531 -23.703125 -11.09375 -24.628906 -12 -25.671875 C -12.90625 -26.710938 -13.796875 -27.789062 -14.671875 -28.90625 C -15.546875 -30.019531 -16.242188 -31.132812 -16.765625 -32.25 C -17.285156 -33.363281 -17.421875 -34.445312 -17.171875 -35.5 C -17.078125 -35.882812 -16.910156 -36.257812 -16.671875 -36.625 C -16.429688 -37 -16.070312 -37.34375 -15.59375 -37.65625 C -15.269531 -37.875 -14.882812 -38.0625 -14.4375 -38.21875 C -13.601562 -38.539062 -12.8125 -38.492188 -12.0625 -38.078125 C -11.3125 -37.671875 -10.585938 -37.035156 -9.890625 -36.171875 C -9.203125 -35.316406 -8.5625 -34.347656 -7.96875 -33.265625 C -7.375 -32.179688 -6.800781 -31.128906 -6.25 -30.109375 C -5.707031 -29.085938 -5.238281 -28.226562 -4.84375 -27.53125 C -4.21875 -26.53125 -3.472656 -25.425781 -2.609375 -24.21875 C -1.742188 -23.007812 -0.832031 -21.90625 0.125 -20.90625 C 1.082031 -19.914062 2.015625 -19.175781 2.921875 -18.6875 C 3.835938 -18.207031 4.632812 -18.191406 5.3125 -18.640625 C 5.4375 -18.710938 5.597656 -18.859375 5.796875 -19.078125 C 6.617188 -20.078125 7.453125 -21.019531 8.296875 -21.90625 C 9.148438 -22.789062 10.007812 -23.515625 10.875 -24.078125 C 12 -24.816406 13.148438 -25.203125 14.328125 -25.234375 C 15.515625 -25.265625 16.753906 -24.738281 18.046875 -23.65625 C 18.859375 -23 19.554688 -22.171875 20.140625 -21.171875 C 20.722656 -20.179688 21.128906 -19.148438 21.359375 -18.078125 C 21.585938 -17.015625 21.5625 -16 21.28125 -15.03125 C 21.007812 -14.070312 20.398438 -13.285156 19.453125 -12.671875 C 19.421875 -12.648438 19.394531 -12.632812 19.375 -12.625 C 19.363281 -12.613281 19.347656 -12.597656 19.328125 -12.578125 C 18.929688 -12.328125 18.421875 -12 17.796875 -11.59375 C 17.179688 -11.1875 16.488281 -10.734375 15.71875 -10.234375 C 14.207031 -9.253906 12.554688 -8.179688 10.765625 -7.015625 C 8.972656 -5.847656 7.335938 -4.78125 5.859375 -3.8125 C 4.941406 -3.21875 4.054688 -2.832031 3.203125 -2.65625 C 2.359375 -2.476562 1.644531 -2.472656 1.0625 -2.640625 Z M 1.0625 -2.640625 "/></g></g></g><g fill="#fcfdf2" fill-opacity="1"><g transform="translate(119.030036, 205.358384)"><g><path d="M -1.65625 -8.5625 C -2.425781 -10.394531 -2.929688 -12.210938 -3.171875 -14.015625 C -3.410156 -15.816406 -3.578125 -17.578125 -3.671875 -19.296875 C -3.765625 -21.015625 -3.914062 -22.648438 -4.125 -24.203125 C -4.332031 -25.765625 -4.769531 -27.222656 -5.4375 -28.578125 C -6.0625 -29.867188 -6.4375 -31.109375 -6.5625 -32.296875 C -6.6875 -33.484375 -6.523438 -34.507812 -6.078125 -35.375 C -5.640625 -36.238281 -4.925781 -36.804688 -3.9375 -37.078125 C -3.570312 -37.179688 -3.117188 -37.222656 -2.578125 -37.203125 C -2.035156 -37.191406 -1.472656 -36.972656 -0.890625 -36.546875 C -0.316406 -36.117188 0.1875 -35.347656 0.625 -34.234375 C 1.070312 -33.203125 1.488281 -32.015625 1.875 -30.671875 C 2.257812 -29.335938 2.65625 -27.992188 3.0625 -26.640625 C 3.476562 -25.285156 3.90625 -24.046875 4.34375 -22.921875 C 4.789062 -21.804688 5.265625 -20.929688 5.765625 -20.296875 C 6.265625 -19.671875 6.800781 -19.4375 7.375 -19.59375 C 8.132812 -19.800781 8.554688 -20.4375 8.640625 -21.5 C 8.734375 -22.570312 8.628906 -23.878906 8.328125 -25.421875 C 8.023438 -26.972656 7.617188 -28.585938 7.109375 -30.265625 C 6.609375 -31.941406 6.148438 -33.492188 5.734375 -34.921875 C 5.535156 -35.640625 5.425781 -36.359375 5.40625 -37.078125 C 5.382812 -37.804688 5.554688 -38.46875 5.921875 -39.0625 C 6.296875 -39.664062 6.925781 -40.085938 7.8125 -40.328125 C 8.726562 -40.585938 9.535156 -40.414062 10.234375 -39.8125 C 10.929688 -39.21875 11.519531 -38.414062 12 -37.40625 C 12.476562 -36.40625 12.882812 -35.398438 13.21875 -34.390625 C 13.550781 -33.390625 13.816406 -32.585938 14.015625 -31.984375 C 14.859375 -29.609375 15.765625 -27.398438 16.734375 -25.359375 C 17.703125 -23.316406 18.519531 -21.28125 19.1875 -19.25 C 19.863281 -17.226562 20.203125 -15.019531 20.203125 -12.625 C 20.210938 -10.914062 19.9375 -9.503906 19.375 -8.390625 C 18.8125 -7.273438 18.117188 -6.382812 17.296875 -5.71875 C 16.472656 -5.050781 15.625 -4.550781 14.75 -4.21875 C 13.875 -3.882812 13.128906 -3.632812 12.515625 -3.46875 L 9.90625 -2.75 C 8.75 -2.425781 7.425781 -2.335938 5.9375 -2.484375 C 4.445312 -2.640625 3.019531 -3.1875 1.65625 -4.125 C 0.289062 -5.070312 -0.8125 -6.550781 -1.65625 -8.5625 Z M -1.65625 -8.5625 "/></g></g></g><g fill="#fcfdf2" fill-opacity="1"><g transform="translate(141.589396, 198.48613)"><g><path d="M 7.53125 0.34375 C 6.5 0.289062 5.425781 0.03125 4.3125 -0.4375 C 3.207031 -0.914062 2.300781 -1.617188 1.59375 -2.546875 C 0.894531 -3.484375 0.632812 -4.671875 0.8125 -6.109375 C 1.007812 -7.691406 1.335938 -9.28125 1.796875 -10.875 C 2.265625 -12.46875 2.753906 -14.257812 3.265625 -16.25 C 3.785156 -18.238281 4.191406 -20.601562 4.484375 -23.34375 C 4.671875 -24.894531 4.769531 -26.445312 4.78125 -28 C 4.789062 -29.5625 4.84375 -30.984375 4.9375 -32.265625 C 5.03125 -33.554688 5.28125 -34.59375 5.6875 -35.375 C 6.09375 -36.15625 6.773438 -36.523438 7.734375 -36.484375 C 9.035156 -36.421875 10.296875 -36.015625 11.515625 -35.265625 C 12.734375 -34.523438 13.867188 -33.597656 14.921875 -32.484375 C 15.972656 -31.378906 16.90625 -30.265625 17.71875 -29.140625 C 18.539062 -28.023438 19.207031 -27.066406 19.71875 -26.265625 C 20.226562 -25.472656 20.550781 -24.984375 20.6875 -24.796875 C 21.125 -24.242188 21.445312 -23.960938 21.65625 -23.953125 C 21.976562 -23.941406 22.226562 -24.578125 22.40625 -25.859375 C 22.582031 -27.148438 22.75 -29.523438 22.90625 -32.984375 C 22.988281 -34.859375 23.910156 -35.753906 25.671875 -35.671875 C 25.953125 -35.660156 26.3125 -35.59375 26.75 -35.46875 C 27.1875 -35.34375 27.59375 -35.078125 27.96875 -34.671875 C 28.34375 -34.265625 28.523438 -33.617188 28.515625 -32.734375 C 28.585938 -28.835938 28.738281 -25.523438 28.96875 -22.796875 C 29.207031 -20.066406 29.445312 -17.675781 29.6875 -15.625 C 29.9375 -13.582031 30.128906 -11.6875 30.265625 -9.9375 C 30.398438 -8.195312 30.390625 -6.363281 30.234375 -4.4375 C 30.117188 -2.84375 29.539062 -1.503906 28.5 -0.421875 C 27.46875 0.660156 25.976562 1.160156 24.03125 1.078125 C 21.570312 0.960938 19.789062 0.207031 18.6875 -1.1875 C 17.582031 -2.582031 17.140625 -4.300781 17.359375 -6.34375 C 17.648438 -8.757812 17.585938 -11.09375 17.171875 -13.34375 C 16.765625 -15.59375 16.191406 -17.609375 15.453125 -19.390625 C 14.722656 -21.179688 13.988281 -22.59375 13.25 -23.625 C 12.519531 -24.65625 11.976562 -25.179688 11.625 -25.203125 C 11.164062 -25.191406 10.867188 -24.941406 10.734375 -24.453125 C 10.609375 -23.960938 10.59375 -23.363281 10.6875 -22.65625 C 10.78125 -21.945312 10.898438 -21.25 11.046875 -20.5625 C 11.191406 -19.882812 11.296875 -19.367188 11.359375 -19.015625 C 11.609375 -17.703125 11.96875 -16.367188 12.4375 -15.015625 C 12.914062 -13.660156 13.390625 -12.328125 13.859375 -11.015625 C 14.335938 -9.710938 14.679688 -8.421875 14.890625 -7.140625 C 15.097656 -5.859375 15.050781 -4.617188 14.75 -3.421875 C 14.613281 -2.835938 14.316406 -2.234375 13.859375 -1.609375 C 13.410156 -0.984375 12.691406 -0.484375 11.703125 -0.109375 C 10.710938 0.265625 9.320312 0.414062 7.53125 0.34375 Z M 7.53125 0.34375 "/></g></g></g><g fill="#fcfdf2" fill-opacity="1"><g transform="translate(171.151586, 199.654844)"><g><path d="M 3.671875 1.515625 C 2.535156 1.046875 1.863281 0.410156 1.65625 -0.390625 C 1.457031 -1.203125 1.503906 -2.023438 1.796875 -2.859375 C 2.085938 -3.691406 2.410156 -4.363281 2.765625 -4.875 C 3.804688 -6.394531 5.03125 -7.8125 6.4375 -9.125 C 7.84375 -10.4375 9.128906 -11.769531 10.296875 -13.125 C 11.296875 -14.238281 12.210938 -15.335938 13.046875 -16.421875 C 13.878906 -17.515625 14.757812 -18.632812 15.6875 -19.78125 C 15.925781 -20.050781 16.367188 -20.617188 17.015625 -21.484375 C 17.660156 -22.359375 18.441406 -23.300781 19.359375 -24.3125 C 20.273438 -25.320312 21.253906 -26.238281 22.296875 -27.0625 C 23.347656 -27.894531 24.375 -28.410156 25.375 -28.609375 C 26.132812 -28.753906 26.953125 -28.648438 27.828125 -28.296875 C 28.472656 -28.023438 29.050781 -27.628906 29.5625 -27.109375 C 30.082031 -26.585938 30.40625 -26.015625 30.53125 -25.390625 C 31 -23.023438 31.09375 -20.671875 30.8125 -18.328125 C 30.539062 -15.992188 30.3125 -13.628906 30.125 -11.234375 C 30.019531 -9.972656 30.007812 -8.535156 30.09375 -6.921875 C 30.175781 -5.316406 30.257812 -3.707031 30.34375 -2.09375 C 30.4375 -0.476562 30.445312 1.0625 30.375 2.53125 C 30.300781 4 30.078125 5.242188 29.703125 6.265625 C 29.421875 7.023438 29.03125 7.769531 28.53125 8.5 C 28.039062 9.238281 27.472656 9.789062 26.828125 10.15625 C 26.179688 10.519531 25.46875 10.539062 24.6875 10.21875 L 18.265625 7.5625 C 17.554688 7.257812 17.144531 6.6875 17.03125 5.84375 C 16.914062 5 17.015625 3.988281 17.328125 2.8125 C 17.648438 1.644531 18.066406 0.441406 18.578125 -0.796875 C 19.085938 -2.035156 19.609375 -3.207031 20.140625 -4.3125 C 20.671875 -5.414062 21.140625 -6.34375 21.546875 -7.09375 C 21.953125 -7.84375 22.160156 -8.269531 22.171875 -8.375 C 22.234375 -8.65625 22.085938 -8.9375 21.734375 -9.21875 C 21.378906 -9.5 20.957031 -9.738281 20.46875 -9.9375 C 19.9375 -10.15625 19.398438 -10.289062 18.859375 -10.34375 C 18.328125 -10.394531 17.921875 -10.304688 17.640625 -10.078125 C 17.585938 -10.015625 17.503906 -9.578125 17.390625 -8.765625 C 17.285156 -7.953125 17.128906 -6.925781 16.921875 -5.6875 C 16.710938 -4.457031 16.441406 -3.1875 16.109375 -1.875 C 15.785156 -0.5625 15.367188 0.632812 14.859375 1.71875 C 14.347656 2.8125 13.734375 3.625 13.015625 4.15625 C 12.304688 4.6875 11.460938 4.75 10.484375 4.34375 Z M 25.578125 -22.96875 C 25.078125 -23.101562 24.554688 -22.925781 24.015625 -22.4375 C 23.472656 -21.945312 22.945312 -21.316406 22.4375 -20.546875 C 21.9375 -19.785156 21.515625 -19.035156 21.171875 -18.296875 C 20.828125 -17.566406 20.625 -16.984375 20.5625 -16.546875 C 20.53125 -16.179688 20.664062 -15.835938 20.96875 -15.515625 C 21.28125 -15.203125 21.644531 -14.957031 22.0625 -14.78125 C 22.625 -14.550781 23.171875 -14.4375 23.703125 -14.4375 C 24.242188 -14.445312 24.648438 -14.644531 24.921875 -15.03125 C 25.179688 -15.382812 25.429688 -15.960938 25.671875 -16.765625 C 25.910156 -17.566406 26.09375 -18.425781 26.21875 -19.34375 C 26.351562 -20.269531 26.378906 -21.082031 26.296875 -21.78125 C 26.222656 -22.476562 25.984375 -22.875 25.578125 -22.96875 Z M 25.578125 -22.96875 "/></g></g></g><g fill="#fcfdf2" fill-opacity="1"><g transform="translate(198.591116, 207.334735)"><g><path d="M 8.4375 -27.21875 C 7.875 -27.625 7.546875 -28.226562 7.453125 -29.03125 C 7.367188 -29.832031 7.484375 -30.648438 7.796875 -31.484375 C 8.117188 -32.316406 8.617188 -33.023438 9.296875 -33.609375 C 9.972656 -34.203125 10.8125 -34.515625 11.8125 -34.546875 C 12.53125 -34.546875 13.210938 -34.5 13.859375 -34.40625 C 14.515625 -34.320312 15.429688 -34.144531 16.609375 -33.875 C 17.085938 -33.757812 17.601562 -33.640625 18.15625 -33.515625 C 18.707031 -33.390625 19.34375 -33.242188 20.0625 -33.078125 C 20.925781 -32.878906 21.757812 -32.691406 22.5625 -32.515625 C 23.375 -32.347656 24.085938 -32.195312 24.703125 -32.0625 C 25.191406 -31.945312 25.660156 -31.835938 26.109375 -31.734375 C 26.554688 -31.628906 26.96875 -31.535156 27.34375 -31.453125 C 28.757812 -31.128906 29.941406 -30.816406 30.890625 -30.515625 C 31.835938 -30.222656 32.640625 -29.859375 33.296875 -29.421875 C 34.117188 -28.867188 34.640625 -28.125 34.859375 -27.1875 C 35.078125 -26.25 35.054688 -25.335938 34.796875 -24.453125 C 34.546875 -23.578125 34.101562 -22.867188 33.46875 -22.328125 C 32.832031 -21.785156 32.082031 -21.613281 31.21875 -21.8125 C 30.257812 -22.03125 29.410156 -22.347656 28.671875 -22.765625 C 27.941406 -23.191406 27.265625 -23.476562 26.640625 -23.625 C 25.921875 -23.78125 25.242188 -23.585938 24.609375 -23.046875 C 23.984375 -22.515625 23.320312 -21.234375 22.625 -19.203125 C 22.09375 -17.660156 21.847656 -16.101562 21.890625 -14.53125 C 21.929688 -12.96875 22.101562 -11.40625 22.40625 -9.84375 C 22.71875 -8.289062 23.03125 -6.734375 23.34375 -5.171875 C 23.65625 -3.617188 23.800781 -2.082031 23.78125 -0.5625 C 23.78125 -0.09375 23.679688 0.457031 23.484375 1.09375 C 23.285156 1.738281 22.914062 2.328125 22.375 2.859375 C 21.832031 3.390625 21.09375 3.765625 20.15625 3.984375 C 19.21875 4.203125 17.988281 4.132812 16.46875 3.78125 L 11.828125 2.71875 C 10.378906 2.382812 9.335938 1.789062 8.703125 0.9375 C 8.066406 0.0820312 7.757812 -0.875 7.78125 -1.9375 C 7.8125 -3 8.082031 -4.015625 8.59375 -4.984375 C 9.726562 -7.035156 10.800781 -9.0625 11.8125 -11.0625 C 12.832031 -13.0625 13.695312 -14.859375 14.40625 -16.453125 C 15.113281 -18.046875 15.546875 -19.242188 15.703125 -20.046875 C 16.222656 -22.460938 16.269531 -24.128906 15.84375 -25.046875 C 15.425781 -25.960938 14.816406 -26.515625 14.015625 -26.703125 C 13.253906 -26.878906 12.441406 -26.910156 11.578125 -26.796875 C 10.722656 -26.679688 9.953125 -26.703125 9.265625 -26.859375 C 8.960938 -26.921875 8.6875 -27.039062 8.4375 -27.21875 Z M 8.4375 -27.21875 "/></g></g></g><g fill="#fcfdf2" fill-opacity="1"><g transform="translate(228.8275, 213.527)"><g><path d="M 4.40625 0.234375 C 3.34375 0.179688 2.453125 -0.296875 1.734375 -1.203125 C 1.023438 -2.109375 0.71875 -3.582031 0.8125 -5.625 C 0.914062 -7.675781 1.660156 -10.4375 3.046875 -13.90625 C 3.753906 -15.59375 4.234375 -17.039062 4.484375 -18.25 C 4.742188 -19.457031 4.90625 -20.53125 4.96875 -21.46875 C 5.039062 -22.40625 5.101562 -23.320312 5.15625 -24.21875 C 5.207031 -25.113281 5.332031 -26.085938 5.53125 -27.140625 C 5.632812 -27.660156 5.945312 -28.171875 6.46875 -28.671875 C 6.988281 -29.171875 7.828125 -29.390625 8.984375 -29.328125 C 9.765625 -29.285156 10.390625 -29.054688 10.859375 -28.640625 C 11.335938 -28.234375 11.664062 -27.773438 11.84375 -27.265625 C 12.0625 -26.648438 12.15625 -25.863281 12.125 -24.90625 C 12.09375 -23.957031 12.113281 -22.769531 12.1875 -21.34375 C 12.269531 -19.925781 12.609375 -18.195312 13.203125 -16.15625 C 13.765625 -14.175781 14.25 -12.179688 14.65625 -10.171875 C 15.0625 -8.171875 15.238281 -6.335938 15.1875 -4.671875 C 15.132812 -3.015625 14.707031 -1.703125 13.90625 -0.734375 C 13.101562 0.222656 11.785156 0.648438 9.953125 0.546875 Z M 8.921875 -31.25 C 8.003906 -31.300781 7.226562 -31.632812 6.59375 -32.25 C 5.96875 -32.875 5.675781 -33.59375 5.71875 -34.40625 C 5.757812 -35.25 6.128906 -35.941406 6.828125 -36.484375 C 7.535156 -37.035156 8.347656 -37.285156 9.265625 -37.234375 C 10.222656 -37.179688 11.019531 -36.84375 11.65625 -36.21875 C 12.289062 -35.601562 12.585938 -34.875 12.546875 -34.03125 C 12.503906 -33.21875 12.128906 -32.535156 11.421875 -31.984375 C 10.710938 -31.441406 9.878906 -31.195312 8.921875 -31.25 Z M 8.921875 -31.25 "/></g></g></g><g fill="#fcfdf2" fill-opacity="1"><g transform="translate(245.876492, 214.616794)"><g><path d="M 13.078125 -1.21875 C 10.648438 -0.988281 8.609375 -1.273438 6.953125 -2.078125 C 5.304688 -2.878906 3.957031 -3.976562 2.90625 -5.375 C 1.851562 -6.769531 1.046875 -8.296875 0.484375 -9.953125 C -0.0664062 -11.609375 -0.460938 -13.179688 -0.703125 -14.671875 C -0.953125 -16.171875 -1.109375 -17.398438 -1.171875 -18.359375 C -1.253906 -19.660156 -1.175781 -21.128906 -0.9375 -22.765625 C -0.695312 -24.398438 -0.269531 -26.070312 0.34375 -27.78125 C 0.96875 -29.5 1.84375 -31.097656 2.96875 -32.578125 C 4.09375 -34.066406 5.492188 -35.316406 7.171875 -36.328125 C 8.847656 -37.335938 10.863281 -37.945312 13.21875 -38.15625 C 13.820312 -38.21875 14.476562 -38.15625 15.1875 -37.96875 C 15.894531 -37.789062 16.492188 -37.429688 16.984375 -36.890625 C 17.484375 -36.359375 17.675781 -35.566406 17.5625 -34.515625 C 17.457031 -33.378906 17.132812 -32.5625 16.59375 -32.0625 C 16.050781 -31.570312 15.425781 -31.296875 14.71875 -31.234375 C 14.570312 -31.210938 14.425781 -31.203125 14.28125 -31.203125 C 14.144531 -31.210938 14.003906 -31.226562 13.859375 -31.25 C 13.398438 -31.3125 12.910156 -31.320312 12.390625 -31.28125 C 11.003906 -31.15625 9.765625 -30.664062 8.671875 -29.8125 C 7.578125 -28.957031 6.765625 -27.847656 6.234375 -26.484375 C 5.710938 -25.117188 5.570312 -23.582031 5.8125 -21.875 C 6.070312 -19.738281 6.84375 -18.3125 8.125 -17.59375 C 9.414062 -16.882812 11.394531 -16.566406 14.0625 -16.640625 C 16.25 -16.691406 17.894531 -16.316406 19 -15.515625 C 20.101562 -14.710938 20.8125 -13.65625 21.125 -12.34375 C 21.445312 -11.03125 21.5 -9.609375 21.28125 -8.078125 C 21.019531 -6.328125 20.1875 -4.800781 18.78125 -3.5 C 17.375 -2.195312 15.472656 -1.4375 13.078125 -1.21875 Z M 13.078125 -1.21875 "/></g></g></g><g fill="#fcfdf2" fill-opacity="1"><g transform="translate(270.982236, 212.437013)"><g><path d="M 3.796875 -1.15625 C 2.617188 -0.800781 1.691406 -0.867188 1.015625 -1.359375 C 0.347656 -1.859375 -0.132812 -2.519531 -0.4375 -3.34375 C -0.738281 -4.175781 -0.914062 -4.898438 -0.96875 -5.515625 C -1.132812 -7.359375 -1.085938 -9.234375 -0.828125 -11.140625 C -0.578125 -13.046875 -0.4375 -14.890625 -0.40625 -16.671875 C -0.34375 -18.160156 -0.332031 -19.59375 -0.375 -20.96875 C -0.425781 -22.34375 -0.457031 -23.769531 -0.46875 -25.25 C -0.46875 -25.601562 -0.492188 -26.320312 -0.546875 -27.40625 C -0.609375 -28.488281 -0.601562 -29.710938 -0.53125 -31.078125 C -0.46875 -32.441406 -0.296875 -33.773438 -0.015625 -35.078125 C 0.253906 -36.390625 0.722656 -37.441406 1.390625 -38.234375 C 1.867188 -38.816406 2.5625 -39.25 3.46875 -39.53125 C 4.144531 -39.738281 4.84375 -39.804688 5.5625 -39.734375 C 6.289062 -39.660156 6.898438 -39.421875 7.390625 -39.015625 C 9.265625 -37.492188 10.835938 -35.738281 12.109375 -33.75 C 13.378906 -31.769531 14.707031 -29.796875 16.09375 -27.828125 C 16.800781 -26.796875 17.695312 -25.6875 18.78125 -24.5 C 19.875 -23.3125 20.972656 -22.117188 22.078125 -20.921875 C 23.179688 -19.722656 24.171875 -18.535156 25.046875 -17.359375 C 25.921875 -16.191406 26.539062 -15.085938 26.90625 -14.046875 C 27.175781 -13.285156 27.351562 -12.460938 27.4375 -11.578125 C 27.519531 -10.703125 27.425781 -9.921875 27.15625 -9.234375 C 26.882812 -8.546875 26.347656 -8.078125 25.546875 -7.828125 L 18.90625 -5.796875 C 18.164062 -5.566406 17.476562 -5.742188 16.84375 -6.328125 C 16.21875 -6.910156 15.65625 -7.753906 15.15625 -8.859375 C 14.664062 -9.960938 14.222656 -11.15625 13.828125 -12.4375 C 13.429688 -13.71875 13.085938 -14.953125 12.796875 -16.140625 C 12.503906 -17.328125 12.273438 -18.335938 12.109375 -19.171875 C 11.941406 -20.015625 11.828125 -20.476562 11.765625 -20.5625 C 11.648438 -20.820312 11.363281 -20.945312 10.90625 -20.9375 C 10.445312 -20.925781 9.96875 -20.84375 9.46875 -20.6875 C 8.914062 -20.519531 8.414062 -20.285156 7.96875 -19.984375 C 7.53125 -19.679688 7.273438 -19.351562 7.203125 -19 C 7.191406 -18.925781 7.398438 -18.535156 7.828125 -17.828125 C 8.265625 -17.128906 8.796875 -16.238281 9.421875 -15.15625 C 10.054688 -14.070312 10.660156 -12.914062 11.234375 -11.6875 C 11.816406 -10.46875 12.257812 -9.273438 12.5625 -8.109375 C 12.863281 -6.953125 12.90625 -5.941406 12.6875 -5.078125 C 12.476562 -4.222656 11.863281 -3.640625 10.84375 -3.328125 Z M 5.109375 -33.984375 C 4.648438 -33.773438 4.363281 -33.3125 4.25 -32.59375 C 4.144531 -31.875 4.140625 -31.054688 4.234375 -30.140625 C 4.328125 -29.222656 4.476562 -28.375 4.6875 -27.59375 C 4.894531 -26.8125 5.109375 -26.234375 5.328125 -25.859375 C 5.535156 -25.535156 5.859375 -25.347656 6.296875 -25.296875 C 6.742188 -25.253906 7.1875 -25.300781 7.625 -25.4375 C 8.195312 -25.613281 8.6875 -25.875 9.09375 -26.21875 C 9.507812 -26.570312 9.695312 -26.984375 9.65625 -27.453125 C 9.632812 -27.890625 9.457031 -28.488281 9.125 -29.25 C 8.800781 -30.019531 8.398438 -30.800781 7.921875 -31.59375 C 7.441406 -32.394531 6.945312 -33.039062 6.4375 -33.53125 C 5.9375 -34.03125 5.492188 -34.179688 5.109375 -33.984375 Z M 5.109375 -33.984375 "/></g></g></g><g fill="#fcfdf2" fill-opacity="1"><g transform="translate(302.213997, 202.349468)"><g><path d="M -1.546875 -6.734375 C -3.046875 -7.585938 -4.1875 -8.664062 -4.96875 -9.96875 C -5.75 -11.28125 -6.070312 -12.597656 -5.9375 -13.921875 C -5.800781 -15.253906 -5.078125 -16.378906 -3.765625 -17.296875 C -3.691406 -17.335938 -3.625 -17.375 -3.5625 -17.40625 C -3.507812 -17.4375 -3.46875 -17.460938 -3.4375 -17.484375 C -2.757812 -17.867188 -2.035156 -18.0625 -1.265625 -18.0625 C -0.503906 -18.070312 0.234375 -17.992188 0.953125 -17.828125 C 1.671875 -17.671875 2.304688 -17.535156 2.859375 -17.421875 C 3.421875 -17.304688 3.835938 -17.328125 4.109375 -17.484375 C 4.234375 -17.554688 4.316406 -17.664062 4.359375 -17.8125 C 4.515625 -18.46875 4.210938 -18.957031 3.453125 -19.28125 C 2.703125 -19.613281 1.675781 -19.882812 0.375 -20.09375 C -0.925781 -20.3125 -2.3125 -20.597656 -3.78125 -20.953125 C -5.257812 -21.316406 -6.648438 -21.84375 -7.953125 -22.53125 C -9.265625 -23.21875 -10.269531 -24.175781 -10.96875 -25.40625 C -12.414062 -27.957031 -12.628906 -30.453125 -11.609375 -32.890625 C -10.597656 -35.335938 -8.457031 -37.484375 -5.1875 -39.328125 C -3.5 -40.285156 -2 -40.8125 -0.6875 -40.90625 C 0.613281 -41 1.664062 -40.769531 2.46875 -40.21875 C 3.28125 -39.675781 3.757812 -38.960938 3.90625 -38.078125 C 4.007812 -37.492188 3.894531 -36.984375 3.5625 -36.546875 C 3.238281 -36.117188 2.796875 -35.742188 2.234375 -35.421875 C 1.523438 -35.023438 0.722656 -34.691406 -0.171875 -34.421875 C -1.078125 -34.160156 -1.847656 -33.867188 -2.484375 -33.546875 C -2.578125 -33.492188 -2.660156 -33.441406 -2.734375 -33.390625 C -2.816406 -33.347656 -2.890625 -33.3125 -2.953125 -33.28125 C -3.835938 -32.78125 -4.375 -32.179688 -4.5625 -31.484375 C -4.757812 -30.785156 -4.523438 -30.097656 -3.859375 -29.421875 C -3.367188 -28.890625 -2.609375 -28.507812 -1.578125 -28.28125 C -0.546875 -28.050781 0.640625 -27.867188 1.984375 -27.734375 C 3.335938 -27.609375 4.753906 -27.457031 6.234375 -27.28125 C 7.710938 -27.101562 9.164062 -26.796875 10.59375 -26.359375 C 12.019531 -25.929688 13.332031 -25.316406 14.53125 -24.515625 C 15.738281 -23.710938 16.726562 -22.601562 17.5 -21.1875 C 18.53125 -19.28125 18.960938 -17.4375 18.796875 -15.65625 C 18.628906 -13.875 18.050781 -12.285156 17.0625 -10.890625 C 16.070312 -9.503906 14.875 -8.414062 13.46875 -7.625 L 11.796875 -6.6875 C 10.203125 -5.78125 8.59375 -5.242188 6.96875 -5.078125 C 5.34375 -4.910156 3.796875 -4.988281 2.328125 -5.3125 C 0.859375 -5.644531 -0.429688 -6.117188 -1.546875 -6.734375 Z M -1.546875 -6.734375 "/></g></g></g><g transform="matrix(1, 0, 0, 1, 96, 202)"><g clip-path="url(#0e549b7ebb)"><g fill="#fcfdf2" fill-opacity="1"><g transform="translate(7.630072, 31.55596)"><g><path d="M 2.46875 -2.296875 L 6.6875 -3.75 L 7.125 -2.46875 L 1.328125 -0.453125 L -2.859375 -12.515625 L -1.28125 -13.078125 Z M 2.46875 -2.296875 "/></g></g></g><g fill="#fcfdf2" fill-opacity="1"><g transform="translate(14.959469, 28.939729)"><g><path d="M -0.609375 -5.0625 C -0.890625 -6.050781 -0.929688 -6.976562 -0.734375 -7.84375 C -0.546875 -8.707031 -0.160156 -9.441406 0.421875 -10.046875 C 1.015625 -10.660156 1.738281 -11.085938 2.59375 -11.328125 C 3.4375 -11.554688 4.222656 -11.570312 4.953125 -11.375 C 5.679688 -11.1875 6.269531 -10.863281 6.71875 -10.40625 L 6.234375 -12.15625 L 7.859375 -12.609375 L 10.5625 -2.953125 L 8.9375 -2.5 L 8.4375 -4.3125 C 8.28125 -3.65625 7.9375 -3.050781 7.40625 -2.5 C 6.882812 -1.945312 6.207031 -1.554688 5.375 -1.328125 C 4.507812 -1.078125 3.671875 -1.066406 2.859375 -1.296875 C 2.046875 -1.535156 1.332031 -1.976562 0.71875 -2.625 C 0.101562 -3.28125 -0.335938 -4.09375 -0.609375 -5.0625 Z M 7.578125 -7.34375 C 7.367188 -8.070312 7.039062 -8.664062 6.59375 -9.125 C 6.15625 -9.59375 5.644531 -9.898438 5.0625 -10.046875 C 4.488281 -10.191406 3.898438 -10.175781 3.296875 -10 C 2.691406 -9.832031 2.179688 -9.539062 1.765625 -9.125 C 1.359375 -8.707031 1.082031 -8.1875 0.9375 -7.5625 C 0.789062 -6.9375 0.820312 -6.257812 1.03125 -5.53125 C 1.238281 -4.800781 1.566406 -4.203125 2.015625 -3.734375 C 2.460938 -3.273438 2.972656 -2.96875 3.546875 -2.8125 C 4.117188 -2.65625 4.707031 -2.660156 5.3125 -2.828125 C 5.914062 -3.003906 6.425781 -3.304688 6.84375 -3.734375 C 7.257812 -4.171875 7.535156 -4.703125 7.671875 -5.328125 C 7.816406 -5.953125 7.785156 -6.625 7.578125 -7.34375 Z M 7.578125 -7.34375 "/></g></g></g><g fill="#fcfdf2" fill-opacity="1"><g transform="translate(26.5529, 25.52187)"><g><path d="M 11.421875 -12.46875 C 12.191406 -12.613281 12.90625 -12.582031 13.5625 -12.375 C 14.226562 -12.164062 14.789062 -11.773438 15.25 -11.203125 C 15.71875 -10.628906 16.035156 -9.890625 16.203125 -8.984375 L 17.265625 -3.15625 L 15.625 -2.859375 L 14.609375 -8.4375 C 14.421875 -9.425781 14.035156 -10.132812 13.453125 -10.5625 C 12.878906 -11 12.175781 -11.140625 11.34375 -10.984375 C 10.5 -10.828125 9.875 -10.429688 9.46875 -9.796875 C 9.0625 -9.171875 8.953125 -8.335938 9.140625 -7.296875 L 10.140625 -1.859375 L 8.515625 -1.5625 L 7.5 -7.140625 C 7.3125 -8.128906 6.925781 -8.835938 6.34375 -9.265625 C 5.769531 -9.703125 5.070312 -9.84375 4.25 -9.6875 C 3.382812 -9.53125 2.75 -9.132812 2.34375 -8.5 C 1.945312 -7.863281 1.84375 -7.023438 2.03125 -5.984375 L 3.03125 -0.546875 L 1.390625 -0.25 L -0.40625 -10.125 L 1.234375 -10.421875 L 1.484375 -9 C 1.710938 -9.570312 2.070312 -10.046875 2.5625 -10.421875 C 3.0625 -10.796875 3.640625 -11.046875 4.296875 -11.171875 C 5.128906 -11.316406 5.898438 -11.265625 6.609375 -11.015625 C 7.316406 -10.765625 7.890625 -10.304688 8.328125 -9.640625 C 8.472656 -10.390625 8.828125 -11.007812 9.390625 -11.5 C 9.953125 -12 10.628906 -12.320312 11.421875 -12.46875 Z M 11.421875 -12.46875 "/></g></g></g><g fill="#fcfdf2" fill-opacity="1"><g transform="translate(44.962476, 22.404092)"><g><path d="M 0.953125 -11.84375 C 0.640625 -11.8125 0.363281 -11.890625 0.125 -12.078125 C -0.113281 -12.273438 -0.25 -12.53125 -0.28125 -12.84375 C -0.3125 -13.164062 -0.234375 -13.445312 -0.046875 -13.6875 C 0.140625 -13.925781 0.390625 -14.0625 0.703125 -14.09375 C 1.015625 -14.125 1.289062 -14.046875 1.53125 -13.859375 C 1.769531 -13.671875 1.90625 -13.414062 1.9375 -13.09375 C 1.96875 -12.78125 1.890625 -12.5 1.703125 -12.25 C 1.515625 -12.007812 1.265625 -11.875 0.953125 -11.84375 Z M 1.953125 -10.3125 L 3.0625 -0.34375 L 1.390625 -0.15625 L 0.28125 -10.125 Z M 1.953125 -10.3125 "/></g></g></g><g fill="#fcfdf2" fill-opacity="1"><g transform="translate(49.366066, 21.82211)"><g><path d="M 5.640625 -10.59375 C 6.859375 -10.675781 7.867188 -10.367188 8.671875 -9.671875 C 9.484375 -8.984375 9.929688 -7.945312 10.015625 -6.5625 L 10.390625 -0.65625 L 8.734375 -0.546875 L 8.375 -6.203125 C 8.3125 -7.203125 8.015625 -7.953125 7.484375 -8.453125 C 6.953125 -8.953125 6.253906 -9.175781 5.390625 -9.125 C 4.515625 -9.070312 3.832031 -8.753906 3.34375 -8.171875 C 2.863281 -7.585938 2.660156 -6.769531 2.734375 -5.71875 L 3.078125 -0.1875 L 1.40625 -0.09375 L 0.78125 -10.109375 L 2.453125 -10.203125 L 2.53125 -8.78125 C 2.832031 -9.3125 3.253906 -9.734375 3.796875 -10.046875 C 4.347656 -10.367188 4.960938 -10.550781 5.640625 -10.59375 Z M 5.640625 -10.59375 "/></g></g></g><g fill="#fcfdf2" fill-opacity="1"><g transform="translate(60.870962, 21.080556)"><g><path d="M 0.828125 -5.046875 C 0.835938 -6.078125 1.050781 -6.976562 1.46875 -7.75 C 1.894531 -8.519531 2.472656 -9.113281 3.203125 -9.53125 C 3.941406 -9.957031 4.753906 -10.164062 5.640625 -10.15625 C 6.515625 -10.144531 7.273438 -9.945312 7.921875 -9.5625 C 8.566406 -9.175781 9.046875 -8.695312 9.359375 -8.125 L 9.375 -9.953125 L 11.0625 -9.9375 L 10.96875 0.09375 L 9.28125 0.078125 L 9.296875 -1.796875 C 8.972656 -1.203125 8.476562 -0.710938 7.8125 -0.328125 C 7.15625 0.046875 6.394531 0.226562 5.53125 0.21875 C 4.632812 0.207031 3.828125 -0.0195312 3.109375 -0.46875 C 2.398438 -0.914062 1.835938 -1.535156 1.421875 -2.328125 C 1.015625 -3.128906 0.816406 -4.035156 0.828125 -5.046875 Z M 9.328125 -4.953125 C 9.328125 -5.710938 9.175781 -6.375 8.875 -6.9375 C 8.582031 -7.5 8.175781 -7.929688 7.65625 -8.234375 C 7.144531 -8.535156 6.578125 -8.691406 5.953125 -8.703125 C 5.328125 -8.703125 4.753906 -8.554688 4.234375 -8.265625 C 3.722656 -7.984375 3.3125 -7.5625 3 -7 C 2.6875 -6.445312 2.53125 -5.789062 2.53125 -5.03125 C 2.519531 -4.269531 2.664062 -3.601562 2.96875 -3.03125 C 3.269531 -2.457031 3.675781 -2.015625 4.1875 -1.703125 C 4.695312 -1.398438 5.265625 -1.25 5.890625 -1.25 C 6.515625 -1.238281 7.085938 -1.378906 7.609375 -1.671875 C 8.128906 -1.972656 8.539062 -2.40625 8.84375 -2.96875 C 9.15625 -3.539062 9.316406 -4.203125 9.328125 -4.953125 Z M 9.328125 -4.953125 "/></g></g></g><g fill="#fcfdf2" fill-opacity="1"><g transform="translate(73.047714, 21.180382)"><g><path d="M 1.203125 -4.96875 C 1.285156 -6 1.566406 -6.878906 2.046875 -7.609375 C 2.523438 -8.347656 3.144531 -8.898438 3.90625 -9.265625 C 4.664062 -9.640625 5.492188 -9.789062 6.390625 -9.71875 C 7.171875 -9.65625 7.878906 -9.414062 8.515625 -9 C 9.148438 -8.582031 9.617188 -8.0625 9.921875 -7.4375 L 10.359375 -12.734375 L 12.046875 -12.59375 L 10.9375 0.90625 L 9.25 0.765625 L 9.40625 -1.125 C 9.03125 -0.550781 8.503906 -0.0976562 7.828125 0.234375 C 7.148438 0.566406 6.378906 0.695312 5.515625 0.625 C 4.628906 0.550781 3.84375 0.265625 3.15625 -0.234375 C 2.46875 -0.734375 1.945312 -1.394531 1.59375 -2.21875 C 1.25 -3.039062 1.117188 -3.957031 1.203125 -4.96875 Z M 9.65625 -4.25 C 9.71875 -5.007812 9.617188 -5.679688 9.359375 -6.265625 C 9.109375 -6.847656 8.738281 -7.304688 8.25 -7.640625 C 7.757812 -7.984375 7.203125 -8.179688 6.578125 -8.234375 C 5.953125 -8.285156 5.367188 -8.1875 4.828125 -7.9375 C 4.296875 -7.6875 3.851562 -7.296875 3.5 -6.765625 C 3.15625 -6.234375 2.953125 -5.585938 2.890625 -4.828125 C 2.828125 -4.066406 2.925781 -3.390625 3.1875 -2.796875 C 3.445312 -2.210938 3.816406 -1.75 4.296875 -1.40625 C 4.785156 -1.0625 5.34375 -0.863281 5.96875 -0.8125 C 6.59375 -0.757812 7.175781 -0.863281 7.71875 -1.125 C 8.257812 -1.382812 8.703125 -1.78125 9.046875 -2.3125 C 9.398438 -2.851562 9.601562 -3.5 9.65625 -4.25 Z M 9.65625 -4.25 "/></g></g></g><g fill="#fcfdf2" fill-opacity="1"><g transform="translate(85.192929, 22.187647)"><g><path d="M 5.6875 1.0625 C 4.757812 0.914062 3.953125 0.570312 3.265625 0.03125 C 2.578125 -0.5 2.078125 -1.1875 1.765625 -2.03125 C 1.453125 -2.882812 1.375 -3.820312 1.53125 -4.84375 C 1.695312 -5.863281 2.0625 -6.726562 2.625 -7.4375 C 3.1875 -8.144531 3.878906 -8.644531 4.703125 -8.9375 C 5.535156 -9.238281 6.421875 -9.320312 7.359375 -9.1875 C 8.285156 -9.039062 9.097656 -8.695312 9.796875 -8.15625 C 10.503906 -7.625 11.019531 -6.9375 11.34375 -6.09375 C 11.664062 -5.257812 11.742188 -4.328125 11.578125 -3.296875 C 11.421875 -2.273438 11.054688 -1.40625 10.484375 -0.6875 C 9.910156 0.0195312 9.203125 0.523438 8.359375 0.828125 C 7.523438 1.128906 6.632812 1.207031 5.6875 1.0625 Z M 5.921875 -0.390625 C 6.515625 -0.296875 7.09375 -0.347656 7.65625 -0.546875 C 8.21875 -0.742188 8.703125 -1.09375 9.109375 -1.59375 C 9.515625 -2.101562 9.773438 -2.753906 9.890625 -3.546875 C 10.015625 -4.347656 9.960938 -5.050781 9.734375 -5.65625 C 9.515625 -6.257812 9.171875 -6.734375 8.703125 -7.078125 C 8.234375 -7.429688 7.707031 -7.65625 7.125 -7.75 C 6.507812 -7.84375 5.929688 -7.789062 5.390625 -7.59375 C 4.847656 -7.40625 4.378906 -7.054688 3.984375 -6.546875 C 3.597656 -6.046875 3.34375 -5.394531 3.21875 -4.59375 C 3.09375 -3.789062 3.132812 -3.085938 3.34375 -2.484375 C 3.5625 -1.878906 3.894531 -1.398438 4.34375 -1.046875 C 4.800781 -0.703125 5.328125 -0.484375 5.921875 -0.390625 Z M 5.921875 -0.390625 "/></g></g></g><g fill="#fcfdf2" fill-opacity="1"><g transform="translate(96.622772, 23.988586)"><g><path d="M 4.828125 1.25 C 4.066406 1.082031 3.414062 0.800781 2.875 0.40625 C 2.34375 0.0078125 1.953125 -0.453125 1.703125 -0.984375 C 1.460938 -1.515625 1.390625 -2.085938 1.484375 -2.703125 L 3.15625 -2.328125 C 3.09375 -1.828125 3.234375 -1.375 3.578125 -0.96875 C 3.921875 -0.570312 4.425781 -0.300781 5.09375 -0.15625 C 5.707031 -0.0195312 6.222656 -0.046875 6.640625 -0.234375 C 7.066406 -0.429688 7.328125 -0.738281 7.421875 -1.15625 C 7.515625 -1.582031 7.394531 -1.941406 7.0625 -2.234375 C 6.726562 -2.535156 6.179688 -2.875 5.421875 -3.25 C 4.742188 -3.601562 4.191406 -3.925781 3.765625 -4.21875 C 3.347656 -4.519531 3.019531 -4.894531 2.78125 -5.34375 C 2.539062 -5.800781 2.488281 -6.347656 2.625 -6.984375 C 2.738281 -7.492188 2.988281 -7.925781 3.375 -8.28125 C 3.769531 -8.632812 4.269531 -8.875 4.875 -9 C 5.476562 -9.125 6.132812 -9.101562 6.84375 -8.9375 C 7.914062 -8.707031 8.722656 -8.238281 9.265625 -7.53125 C 9.804688 -6.832031 10 -6 9.84375 -5.03125 L 8.21875 -5.390625 C 8.300781 -5.921875 8.1875 -6.382812 7.875 -6.78125 C 7.5625 -7.175781 7.09375 -7.441406 6.46875 -7.578125 C 5.882812 -7.710938 5.394531 -7.6875 5 -7.5 C 4.601562 -7.320312 4.359375 -7.03125 4.265625 -6.625 C 4.191406 -6.3125 4.234375 -6.023438 4.390625 -5.765625 C 4.554688 -5.515625 4.78125 -5.289062 5.0625 -5.09375 C 5.351562 -4.894531 5.765625 -4.660156 6.296875 -4.390625 C 6.960938 -4.035156 7.492188 -3.71875 7.890625 -3.4375 C 8.296875 -3.164062 8.613281 -2.804688 8.84375 -2.359375 C 9.070312 -1.921875 9.128906 -1.40625 9.015625 -0.8125 C 8.890625 -0.269531 8.628906 0.175781 8.234375 0.53125 C 7.835938 0.894531 7.34375 1.140625 6.75 1.265625 C 6.164062 1.398438 5.523438 1.394531 4.828125 1.25 Z M 4.828125 1.25 "/></g></g></g><g fill="#fcfdf2" fill-opacity="1"><g transform="translate(105.906489, 26.089515)"><g/></g></g><g fill="#fcfdf2" fill-opacity="1"><g transform="translate(110.665746, 27.359009)"><g/></g></g></g></g><g fill="#fcfdf2" fill-opacity="1"><g transform="translate(207.943278, 227.884949)"><g><path d="M 11.25 -8.96875 L 10.25 1.015625 L 8.59375 0.859375 L 8.734375 -0.625 C 8.367188 -0.144531 7.890625 0.207031 7.296875 0.4375 C 6.703125 0.664062 6.066406 0.75 5.390625 0.6875 C 4.617188 0.601562 3.9375 0.367188 3.34375 -0.015625 C 2.75 -0.398438 2.304688 -0.929688 2.015625 -1.609375 C 1.734375 -2.285156 1.632812 -3.085938 1.71875 -4.015625 L 2.3125 -9.859375 L 3.953125 -9.6875 L 3.390625 -4.0625 C 3.285156 -3.070312 3.457031 -2.289062 3.90625 -1.71875 C 4.351562 -1.144531 5.003906 -0.8125 5.859375 -0.71875 C 6.742188 -0.632812 7.46875 -0.835938 8.03125 -1.328125 C 8.601562 -1.828125 8.941406 -2.597656 9.046875 -3.640625 L 9.59375 -9.125 Z M 8.890625 -12.046875 L 4.796875 -10.359375 L 4.921875 -11.578125 L 9.03125 -13.484375 Z M 8.890625 -12.046875 "/></g></g></g><g fill="#fcfdf2" fill-opacity="1"><g transform="translate(220.138367, 229.085736)"><g><path d="M 6.75 -9.90625 C 7.957031 -9.851562 8.921875 -9.441406 9.640625 -8.671875 C 10.367188 -7.898438 10.703125 -6.820312 10.640625 -5.4375 L 10.375 0.46875 L 8.734375 0.390625 L 8.984375 -5.28125 C 9.035156 -6.28125 8.820312 -7.050781 8.34375 -7.59375 C 7.875 -8.144531 7.207031 -8.441406 6.34375 -8.484375 C 5.457031 -8.523438 4.742188 -8.285156 4.203125 -7.765625 C 3.660156 -7.242188 3.367188 -6.457031 3.328125 -5.40625 L 3.078125 0.140625 L 1.40625 0.0625 L 1.859375 -9.953125 L 3.53125 -9.875 L 3.46875 -8.4375 C 3.8125 -8.945312 4.269531 -9.328125 4.84375 -9.578125 C 5.425781 -9.828125 6.0625 -9.9375 6.75 -9.90625 Z M 6.75 -9.90625 "/></g></g></g><g fill="#fcfdf2" fill-opacity="1"><g transform="translate(232.276981, 229.551789)"><g><path d="M 2.34375 -11.640625 C 2.03125 -11.640625 1.765625 -11.75 1.546875 -11.96875 C 1.328125 -12.195312 1.21875 -12.472656 1.21875 -12.796875 C 1.226562 -13.109375 1.34375 -13.367188 1.5625 -13.578125 C 1.78125 -13.796875 2.046875 -13.90625 2.359375 -13.90625 C 2.660156 -13.90625 2.914062 -13.796875 3.125 -13.578125 C 3.34375 -13.359375 3.445312 -13.09375 3.4375 -12.78125 C 3.4375 -12.457031 3.328125 -12.1875 3.109375 -11.96875 C 2.898438 -11.75 2.644531 -11.640625 2.34375 -11.640625 Z M 3.140625 -10.015625 L 3.078125 0.015625 L 1.40625 0.015625 L 1.46875 -10.015625 Z M 3.140625 -10.015625 "/></g></g></g><g fill="#fcfdf2" fill-opacity="1"><g transform="translate(237.210031, 229.637206)"><g><path d="M 0.625 -5.0625 C 0.59375 -6.101562 0.773438 -7.015625 1.171875 -7.796875 C 1.566406 -8.578125 2.125 -9.191406 2.84375 -9.640625 C 3.570312 -10.085938 4.410156 -10.328125 5.359375 -10.359375 C 6.585938 -10.390625 7.613281 -10.117188 8.4375 -9.546875 C 9.257812 -8.972656 9.8125 -8.164062 10.09375 -7.125 L 8.3125 -7.0625 C 8.113281 -7.664062 7.757812 -8.132812 7.25 -8.46875 C 6.75 -8.8125 6.132812 -8.972656 5.40625 -8.953125 C 4.457031 -8.921875 3.695312 -8.570312 3.125 -7.90625 C 2.5625 -7.238281 2.296875 -6.304688 2.328125 -5.109375 C 2.367188 -3.898438 2.691406 -2.972656 3.296875 -2.328125 C 3.910156 -1.691406 4.691406 -1.390625 5.640625 -1.421875 C 6.367188 -1.441406 6.972656 -1.628906 7.453125 -1.984375 C 7.929688 -2.335938 8.253906 -2.832031 8.421875 -3.46875 L 10.203125 -3.53125 C 9.972656 -2.5 9.460938 -1.660156 8.671875 -1.015625 C 7.878906 -0.367188 6.878906 -0.03125 5.671875 0 C 4.722656 0.03125 3.875 -0.15625 3.125 -0.5625 C 2.375 -0.96875 1.773438 -1.554688 1.328125 -2.328125 C 0.890625 -3.097656 0.65625 -4.007812 0.625 -5.0625 Z M 0.625 -5.0625 "/></g></g></g><g fill="#fcfdf2" fill-opacity="1"><g transform="translate(248.846305, 229.280559)"><g><path d="M 5.78125 -0.3125 C 4.84375 -0.226562 3.972656 -0.367188 3.171875 -0.734375 C 2.378906 -1.097656 1.734375 -1.648438 1.234375 -2.390625 C 0.742188 -3.140625 0.453125 -4.035156 0.359375 -5.078125 C 0.273438 -6.097656 0.421875 -7.015625 0.796875 -7.828125 C 1.179688 -8.648438 1.738281 -9.304688 2.46875 -9.796875 C 3.195312 -10.285156 4.039062 -10.566406 5 -10.640625 C 5.9375 -10.722656 6.804688 -10.582031 7.609375 -10.21875 C 8.410156 -9.863281 9.066406 -9.316406 9.578125 -8.578125 C 10.085938 -7.847656 10.382812 -6.960938 10.46875 -5.921875 C 10.5625 -4.878906 10.410156 -3.945312 10.015625 -3.125 C 9.617188 -2.3125 9.046875 -1.65625 8.296875 -1.15625 C 7.554688 -0.664062 6.71875 -0.382812 5.78125 -0.3125 Z M 5.65625 -1.78125 C 6.25 -1.832031 6.796875 -2.019531 7.296875 -2.34375 C 7.796875 -2.664062 8.179688 -3.117188 8.453125 -3.703125 C 8.734375 -4.285156 8.835938 -4.976562 8.765625 -5.78125 C 8.703125 -6.582031 8.488281 -7.25 8.125 -7.78125 C 7.757812 -8.3125 7.3125 -8.691406 6.78125 -8.921875 C 6.25 -9.160156 5.6875 -9.253906 5.09375 -9.203125 C 4.476562 -9.148438 3.929688 -8.960938 3.453125 -8.640625 C 2.972656 -8.328125 2.601562 -7.878906 2.34375 -7.296875 C 2.082031 -6.710938 1.984375 -6.019531 2.046875 -5.21875 C 2.117188 -4.40625 2.328125 -3.734375 2.671875 -3.203125 C 3.023438 -2.671875 3.460938 -2.285156 3.984375 -2.046875 C 4.503906 -1.816406 5.0625 -1.726562 5.65625 -1.78125 Z M 5.65625 -1.78125 "/></g></g></g><g fill="#fcfdf2" fill-opacity="1"><g transform="translate(261.022202, 228.222974)"><g><path d="M 4.921875 -0.484375 C 4.171875 -0.378906 3.472656 -0.421875 2.828125 -0.609375 C 2.191406 -0.796875 1.664062 -1.097656 1.25 -1.515625 C 0.84375 -1.929688 0.582031 -2.4375 0.46875 -3.03125 L 2.171875 -3.265625 C 2.273438 -2.785156 2.554688 -2.410156 3.015625 -2.140625 C 3.484375 -1.878906 4.050781 -1.796875 4.71875 -1.890625 C 5.351562 -1.972656 5.832031 -2.175781 6.15625 -2.5 C 6.476562 -2.820312 6.613281 -3.191406 6.5625 -3.609375 C 6.5 -4.054688 6.257812 -4.359375 5.84375 -4.515625 C 5.4375 -4.679688 4.8125 -4.816406 3.96875 -4.921875 C 3.207031 -4.992188 2.582031 -5.101562 2.09375 -5.25 C 1.601562 -5.394531 1.160156 -5.640625 0.765625 -5.984375 C 0.378906 -6.328125 0.144531 -6.820312 0.0625 -7.46875 C 0 -7.96875 0.0859375 -8.453125 0.328125 -8.921875 C 0.578125 -9.390625 0.960938 -9.78125 1.484375 -10.09375 C 2.003906 -10.414062 2.617188 -10.625 3.328125 -10.71875 C 4.429688 -10.863281 5.359375 -10.707031 6.109375 -10.25 C 6.867188 -9.789062 7.335938 -9.078125 7.515625 -8.109375 L 5.859375 -7.890625 C 5.765625 -8.410156 5.503906 -8.800781 5.078125 -9.0625 C 4.648438 -9.320312 4.113281 -9.410156 3.46875 -9.328125 C 2.875 -9.242188 2.414062 -9.050781 2.09375 -8.75 C 1.78125 -8.445312 1.648438 -8.09375 1.703125 -7.6875 C 1.742188 -7.351562 1.882812 -7.09375 2.125 -6.90625 C 2.375 -6.726562 2.671875 -6.597656 3.015625 -6.515625 C 3.359375 -6.441406 3.820312 -6.363281 4.40625 -6.28125 C 5.144531 -6.175781 5.75 -6.0625 6.21875 -5.9375 C 6.6875 -5.8125 7.101562 -5.582031 7.46875 -5.25 C 7.84375 -4.914062 8.082031 -4.441406 8.1875 -3.828125 C 8.257812 -3.296875 8.171875 -2.789062 7.921875 -2.3125 C 7.679688 -1.832031 7.300781 -1.429688 6.78125 -1.109375 C 6.257812 -0.785156 5.640625 -0.578125 4.921875 -0.484375 Z M 4.921875 -0.484375 "/></g></g></g><g fill="#fcfdf2" fill-opacity="1"><g transform="translate(270.891527, 226.854738)"><g/></g></g></svg>