<svg xmlns="http://www.w3.org/2000/svg" xmlns:xlink="http://www.w3.org/1999/xlink" width="500" zoomAndPan="magnify" viewBox="0 0 375 374.999991" height="500" preserveAspectRatio="xMidYMid meet" version="1.0"><defs><g/><clipPath id="44e8812f37"><path d="M 95 142 L 281 142 L 281 250 L 95 250 Z M 95 142 " clip-rule="nonzero"/></clipPath><clipPath id="8a7bcb7090"><path d="M 125.695312 93.382812 L 292.933594 157.894531 L 249.480469 270.550781 L 82.238281 206.042969 Z M 125.695312 93.382812 " clip-rule="nonzero"/></clipPath><clipPath id="af6ed92c17"><path d="M 125.695312 93.382812 L 292.933594 157.894531 L 249.480469 270.550781 L 82.238281 206.042969 Z M 125.695312 93.382812 " clip-rule="nonzero"/></clipPath><clipPath id="87a23cecae"><path d="M 278.855469 183.535156 C 283.011719 169.410156 275.910156 154.136719 262.503906 148.128906 C 252.148438 143.453125 240.691406 145.1875 232.347656 151.464844 C 228.183594 154.570312 222.429688 154.324219 218.386719 151.019531 C 215.273438 148.449219 211.628906 146.285156 207.660156 144.753906 C 196.019531 140.261719 183.546875 141.683594 173.507812 147.609375 C 167.695312 151.066406 160.476562 150.867188 154.644531 147.476562 C 152.109375 145.96875 149.316406 144.738281 146.398438 143.839844 C 127.460938 137.980469 106.9375 147.460938 99.027344 165.605469 C 90.015625 186.214844 100.089844 209.929688 120.855469 217.9375 C 129.453125 221.253906 138.46875 221.3125 146.574219 218.816406 C 154.769531 216.28125 163.53125 219.964844 167.417969 227.617188 C 171.960938 236.511719 179.882812 243.746094 190.273438 247.144531 C 209.371094 253.371094 230.433594 243.871094 238.382812 225.433594 C 239.289062 223.277344 240.015625 221.203125 240.566406 218.984375 C 242.371094 211.550781 248.195312 205.898438 255.734375 204.476562 C 266.28125 202.539062 275.546875 194.871094 278.855469 183.535156 Z M 278.855469 183.535156 " clip-rule="nonzero"/></clipPath><clipPath id="7f06b6c033"><path d="M 151 127 L 169 127 L 169 145 L 151 145 Z M 151 127 " clip-rule="nonzero"/></clipPath><clipPath id="3c4f6c1668"><path d="M 125.695312 93.382812 L 292.933594 157.894531 L 249.480469 270.550781 L 82.238281 206.042969 Z M 125.695312 93.382812 " clip-rule="nonzero"/></clipPath><clipPath id="163b5e408c"><path d="M 125.695312 93.382812 L 292.933594 157.894531 L 249.480469 270.550781 L 82.238281 206.042969 Z M 125.695312 93.382812 " clip-rule="nonzero"/></clipPath><clipPath id="b1d517d62a"><path d="M 167.695312 139.441406 C 167.496094 139.960938 167.246094 140.453125 166.953125 140.917969 C 166.65625 141.386719 166.316406 141.820312 165.933594 142.222656 C 165.550781 142.625 165.136719 142.984375 164.683594 143.304688 C 164.230469 143.621094 163.75 143.894531 163.242188 144.117188 C 162.738281 144.34375 162.214844 144.515625 161.671875 144.636719 C 161.132812 144.757812 160.585938 144.824219 160.03125 144.839844 C 159.476562 144.851562 158.929688 144.8125 158.382812 144.71875 C 157.835938 144.625 157.304688 144.476562 156.789062 144.277344 C 156.273438 144.078125 155.78125 143.828125 155.3125 143.535156 C 154.84375 143.238281 154.410156 142.898438 154.007812 142.515625 C 153.609375 142.132812 153.246094 141.714844 152.929688 141.265625 C 152.609375 140.8125 152.339844 140.332031 152.113281 139.824219 C 151.890625 139.320312 151.714844 138.796875 151.59375 138.253906 C 151.472656 137.714844 151.40625 137.167969 151.390625 136.613281 C 151.378906 136.058594 151.417969 135.511719 151.515625 134.964844 C 151.609375 134.417969 151.753906 133.886719 151.953125 133.371094 C 152.15625 132.855469 152.402344 132.363281 152.699219 131.894531 C 152.996094 131.425781 153.332031 130.992188 153.714844 130.589844 C 154.097656 130.1875 154.515625 129.828125 154.96875 129.511719 C 155.421875 129.191406 155.898438 128.917969 156.40625 128.695312 C 156.914062 128.472656 157.4375 128.296875 157.976562 128.175781 C 158.515625 128.054688 159.0625 127.988281 159.617188 127.972656 C 160.171875 127.960938 160.722656 128 161.265625 128.097656 C 161.8125 128.191406 162.34375 128.335938 162.859375 128.535156 C 163.378906 128.734375 163.871094 128.984375 164.335938 129.28125 C 164.804688 129.578125 165.238281 129.914062 165.640625 130.296875 C 166.042969 130.679688 166.402344 131.097656 166.722656 131.550781 C 167.039062 132.003906 167.3125 132.480469 167.535156 132.988281 C 167.761719 133.496094 167.933594 134.019531 168.054688 134.558594 C 168.175781 135.097656 168.242188 135.644531 168.257812 136.199219 C 168.269531 136.753906 168.230469 137.304688 168.136719 137.847656 C 168.042969 138.394531 167.894531 138.925781 167.695312 139.441406 Z M 167.695312 139.441406 " clip-rule="nonzero"/></clipPath><clipPath id="d587e44381"><path d="M 205 126 L 216 126 L 216 137 L 205 137 Z M 205 126 " clip-rule="nonzero"/></clipPath><clipPath id="f087e4b176"><path d="M 125.695312 93.382812 L 292.933594 157.894531 L 249.480469 270.550781 L 82.238281 206.042969 Z M 125.695312 93.382812 " clip-rule="nonzero"/></clipPath><clipPath id="427d0440c0"><path d="M 125.695312 93.382812 L 292.933594 157.894531 L 249.480469 270.550781 L 82.238281 206.042969 Z M 125.695312 93.382812 " clip-rule="nonzero"/></clipPath><clipPath id="cf8c7cc23e"><path d="M 215.65625 133.476562 C 215.535156 133.785156 215.390625 134.082031 215.210938 134.359375 C 215.035156 134.640625 214.832031 134.898438 214.605469 135.136719 C 214.378906 135.375 214.128906 135.589844 213.859375 135.78125 C 213.585938 135.972656 213.300781 136.132812 213 136.269531 C 212.699219 136.402344 212.386719 136.503906 212.0625 136.578125 C 211.742188 136.648438 211.414062 136.691406 211.082031 136.699219 C 210.753906 136.707031 210.425781 136.683594 210.101562 136.625 C 209.773438 136.570312 209.457031 136.480469 209.148438 136.363281 C 208.839844 136.242188 208.546875 136.097656 208.269531 135.917969 C 207.988281 135.742188 207.730469 135.539062 207.488281 135.3125 C 207.25 135.085938 207.035156 134.835938 206.84375 134.566406 C 206.65625 134.296875 206.492188 134.007812 206.359375 133.707031 C 206.226562 133.40625 206.121094 133.09375 206.050781 132.769531 C 205.976562 132.449219 205.9375 132.121094 205.929688 131.789062 C 205.921875 131.460938 205.945312 131.132812 206 130.808594 C 206.058594 130.480469 206.144531 130.164062 206.265625 129.855469 C 206.382812 129.546875 206.53125 129.253906 206.707031 128.976562 C 206.886719 128.695312 207.085938 128.4375 207.316406 128.195312 C 207.542969 127.957031 207.792969 127.742188 208.0625 127.550781 C 208.332031 127.363281 208.617188 127.199219 208.921875 127.066406 C 209.222656 126.933594 209.535156 126.828125 209.855469 126.757812 C 210.179688 126.683594 210.507812 126.644531 210.835938 126.636719 C 211.167969 126.628906 211.496094 126.652344 211.820312 126.707031 C 212.144531 126.765625 212.464844 126.851562 212.769531 126.972656 C 213.078125 127.089844 213.375 127.238281 213.652344 127.414062 C 213.933594 127.59375 214.191406 127.792969 214.429688 128.023438 C 214.667969 128.25 214.882812 128.5 215.074219 128.769531 C 215.265625 129.039062 215.425781 129.324219 215.5625 129.628906 C 215.695312 129.929688 215.796875 130.242188 215.871094 130.566406 C 215.941406 130.886719 215.984375 131.214844 215.992188 131.542969 C 216 131.875 215.976562 132.203125 215.917969 132.527344 C 215.863281 132.851562 215.773438 133.171875 215.65625 133.476562 Z M 215.65625 133.476562 " clip-rule="nonzero"/></clipPath><clipPath id="aef70d8169"><path d="M 250 215 L 267 215 L 267 232 L 250 232 Z M 250 215 " clip-rule="nonzero"/></clipPath><clipPath id="19038d7769"><path d="M 125.695312 93.382812 L 292.933594 157.894531 L 249.480469 270.550781 L 82.238281 206.042969 Z M 125.695312 93.382812 " clip-rule="nonzero"/></clipPath><clipPath id="b0af0e9be9"><path d="M 125.695312 93.382812 L 292.933594 157.894531 L 249.480469 270.550781 L 82.238281 206.042969 Z M 125.695312 93.382812 " clip-rule="nonzero"/></clipPath><clipPath id="d89fbaaa90"><path d="M 266.308594 226.105469 C 266.121094 226.589844 265.890625 227.054688 265.609375 227.492188 C 265.332031 227.933594 265.011719 228.34375 264.652344 228.71875 C 264.292969 229.097656 263.902344 229.4375 263.472656 229.738281 C 263.046875 230.039062 262.597656 230.292969 262.121094 230.503906 C 261.644531 230.714844 261.152344 230.878906 260.640625 230.992188 C 260.132812 231.105469 259.617188 231.171875 259.097656 231.183594 C 258.578125 231.195312 258.058594 231.15625 257.546875 231.070312 C 257.03125 230.980469 256.53125 230.839844 256.046875 230.652344 C 255.558594 230.464844 255.097656 230.234375 254.65625 229.953125 C 254.214844 229.675781 253.804688 229.355469 253.429688 228.996094 C 253.050781 228.636719 252.710938 228.242188 252.414062 227.816406 C 252.113281 227.390625 251.855469 226.941406 251.644531 226.464844 C 251.433594 225.988281 251.269531 225.496094 251.15625 224.984375 C 251.042969 224.476562 250.980469 223.960938 250.964844 223.441406 C 250.953125 222.921875 250.992188 222.402344 251.082031 221.890625 C 251.171875 221.375 251.308594 220.875 251.496094 220.390625 C 251.683594 219.902344 251.917969 219.441406 252.195312 219 C 252.472656 218.558594 252.792969 218.148438 253.152344 217.773438 C 253.511719 217.394531 253.90625 217.054688 254.332031 216.753906 C 254.757812 216.457031 255.210938 216.199219 255.6875 215.988281 C 256.164062 215.777344 256.65625 215.613281 257.164062 215.5 C 257.671875 215.386719 258.1875 215.324219 258.707031 215.308594 C 259.230469 215.296875 259.746094 215.335938 260.261719 215.425781 C 260.773438 215.511719 261.273438 215.652344 261.761719 215.839844 C 262.246094 216.027344 262.710938 216.261719 263.148438 216.539062 C 263.589844 216.816406 264 217.136719 264.378906 217.496094 C 264.753906 217.855469 265.09375 218.25 265.394531 218.675781 C 265.695312 219.101562 265.949219 219.550781 266.160156 220.027344 C 266.371094 220.503906 266.535156 221 266.648438 221.507812 C 266.761719 222.015625 266.828125 222.53125 266.839844 223.050781 C 266.851562 223.574219 266.8125 224.089844 266.726562 224.605469 C 266.636719 225.117188 266.496094 225.617188 266.308594 226.105469 Z M 266.308594 226.105469 " clip-rule="nonzero"/></clipPath></defs><g clip-path="url(#44e8812f37)"><g clip-path="url(#8a7bcb7090)"><g clip-path="url(#af6ed92c17)"><g clip-path="url(#87a23cecae)"><path fill="#fcfdf2" d="M 115.011719 73.175781 L 51.269531 238.425781 L 258.015625 318.175781 L 321.757812 152.921875 Z M 115.011719 73.175781 " fill-opacity="1" fill-rule="nonzero"/></g></g></g></g><g clip-path="url(#7f06b6c033)"><g clip-path="url(#3c4f6c1668)"><g clip-path="url(#163b5e408c)"><g clip-path="url(#b1d517d62a)"><path fill="#fcfdf2" d="M 153.566406 122.289062 L 145.707031 142.664062 L 166.082031 150.523438 L 173.941406 130.148438 Z M 153.566406 122.289062 " fill-opacity="1" fill-rule="nonzero"/></g></g></g></g><g clip-path="url(#d587e44381)"><g clip-path="url(#f087e4b176)"><g clip-path="url(#427d0440c0)"><g clip-path="url(#cf8c7cc23e)"><path fill="#fcfdf2" d="M 207.226562 123.242188 L 202.535156 135.402344 L 214.695312 140.089844 L 219.382812 127.933594 Z M 207.226562 123.242188 " fill-opacity="1" fill-rule="nonzero"/></g></g></g></g><g clip-path="url(#aef70d8169)"><g clip-path="url(#19038d7769)"><g clip-path="url(#b0af0e9be9)"><g clip-path="url(#d89fbaaa90)"><path fill="#fcfdf2" d="M 253.011719 209.957031 L 245.617188 229.136719 L 264.792969 236.535156 L 272.191406 217.355469 Z M 253.011719 209.957031 " fill-opacity="1" fill-rule="nonzero"/></g></g></g></g><g fill="#4b5ae4" fill-opacity="1"><g transform="translate(117.718144, 205.098674)"><g><path d="M 4.1875 -0.984375 C 3.175781 -0.742188 2.351562 -0.765625 1.71875 -1.046875 C 1.09375 -1.335938 0.613281 -1.78125 0.28125 -2.375 C -0.0507812 -2.976562 -0.289062 -3.613281 -0.4375 -4.28125 C -0.582031 -4.945312 -0.660156 -5.539062 -0.671875 -6.0625 C -0.734375 -8.070312 -0.5625 -10.101562 -0.15625 -12.15625 C 0.238281 -14.207031 0.535156 -16.21875 0.734375 -18.1875 C 0.867188 -19.78125 0.960938 -21.335938 1.015625 -22.859375 C 1.078125 -24.378906 1.160156 -25.929688 1.265625 -27.515625 C 1.273438 -27.921875 1.296875 -28.695312 1.328125 -29.84375 C 1.367188 -31 1.46875 -32.316406 1.625 -33.796875 C 1.78125 -35.285156 2.054688 -36.722656 2.453125 -38.109375 C 2.859375 -39.492188 3.457031 -40.609375 4.25 -41.453125 C 4.820312 -42.097656 5.617188 -42.539062 6.640625 -42.78125 C 7.398438 -42.957031 8.171875 -42.976562 8.953125 -42.84375 C 9.734375 -42.71875 10.363281 -42.40625 10.84375 -41.90625 C 12.75 -40.101562 14.320312 -38.066406 15.5625 -35.796875 C 16.800781 -33.535156 18.101562 -31.289062 19.46875 -29.0625 C 20.164062 -27.894531 21.066406 -26.632812 22.171875 -25.28125 C 23.285156 -23.925781 24.398438 -22.550781 25.515625 -21.15625 C 26.640625 -19.769531 27.628906 -18.40625 28.484375 -17.0625 C 29.347656 -15.726562 29.929688 -14.484375 30.234375 -13.328125 C 30.484375 -12.472656 30.609375 -11.5625 30.609375 -10.59375 C 30.617188 -9.632812 30.453125 -8.789062 30.109375 -8.0625 C 29.773438 -7.332031 29.179688 -6.863281 28.328125 -6.65625 L 20.9375 -4.921875 C 20.125 -4.734375 19.398438 -4.976562 18.765625 -5.65625 C 18.128906 -6.34375 17.578125 -7.296875 17.109375 -8.515625 C 16.648438 -9.734375 16.25 -11.066406 15.90625 -12.515625 C 15.5625 -13.960938 15.28125 -15.347656 15.0625 -16.671875 C 14.84375 -17.992188 14.671875 -19.097656 14.546875 -19.984375 C 14.429688 -20.878906 14.335938 -21.398438 14.265625 -21.546875 C 14.128906 -21.796875 13.820312 -21.9375 13.34375 -21.96875 C 12.863281 -22 12.332031 -21.945312 11.75 -21.8125 C 11.164062 -21.664062 10.609375 -21.453125 10.078125 -21.171875 C 9.546875 -20.890625 9.234375 -20.554688 9.140625 -20.171875 C 9.128906 -20.085938 9.332031 -19.648438 9.75 -18.859375 C 10.175781 -18.078125 10.695312 -17.066406 11.3125 -15.828125 C 11.925781 -14.597656 12.5 -13.289062 13.03125 -11.90625 C 13.570312 -10.519531 13.96875 -9.1875 14.21875 -7.90625 C 14.476562 -6.625 14.453125 -5.519531 14.140625 -4.59375 C 13.828125 -3.675781 13.117188 -3.085938 12.015625 -2.828125 Z M 8.015625 -36.625 C 7.503906 -36.425781 7.144531 -35.941406 6.9375 -35.171875 C 6.738281 -34.398438 6.671875 -33.507812 6.734375 -32.5 C 6.796875 -31.5 6.910156 -30.554688 7.078125 -29.671875 C 7.242188 -28.796875 7.429688 -28.160156 7.640625 -27.765625 C 7.816406 -27.410156 8.144531 -27.179688 8.625 -27.078125 C 9.113281 -26.972656 9.617188 -26.976562 10.140625 -27.09375 C 10.710938 -27.226562 11.242188 -27.488281 11.734375 -27.875 C 12.222656 -28.269531 12.46875 -28.707031 12.46875 -29.1875 C 12.46875 -29.625 12.316406 -30.273438 12.015625 -31.140625 C 11.722656 -32.015625 11.34375 -32.90625 10.875 -33.8125 C 10.414062 -34.71875 9.925781 -35.453125 9.40625 -36.015625 C 8.894531 -36.585938 8.429688 -36.789062 8.015625 -36.625 Z M 8.015625 -36.625 "/></g></g></g><g fill="#4b5ae4" fill-opacity="1"><g transform="translate(146.701298, 198.249388)"><g><path d="M 4.78125 -24.3125 C 4.769531 -25.414062 4.660156 -26.613281 4.453125 -27.90625 C 4.253906 -29.207031 4.054688 -30.503906 3.859375 -31.796875 C 3.671875 -33.085938 3.578125 -34.28125 3.578125 -35.375 C 3.585938 -36.476562 3.773438 -37.390625 4.140625 -38.109375 C 4.503906 -38.828125 5.148438 -39.265625 6.078125 -39.421875 C 6.460938 -39.460938 6.816406 -39.492188 7.140625 -39.515625 C 7.460938 -39.546875 7.765625 -39.550781 8.046875 -39.53125 C 9.179688 -39.425781 10.019531 -39.066406 10.5625 -38.453125 C 11.113281 -37.847656 11.5 -37.082031 11.71875 -36.15625 C 11.945312 -35.238281 12.097656 -34.234375 12.171875 -33.140625 C 12.242188 -32.046875 12.335938 -30.984375 12.453125 -29.953125 C 12.859375 -26.410156 13.328125 -23.515625 13.859375 -21.265625 C 14.398438 -19.023438 15.054688 -17.867188 15.828125 -17.796875 C 16.328125 -17.753906 16.765625 -18.210938 17.140625 -19.171875 C 17.523438 -20.128906 17.921875 -21.328125 18.328125 -22.765625 C 18.734375 -24.210938 19.171875 -25.601562 19.640625 -26.9375 C 20.140625 -28.28125 20.515625 -29.601562 20.765625 -30.90625 C 21.023438 -32.21875 21.300781 -33.410156 21.59375 -34.484375 C 21.882812 -35.554688 22.300781 -36.394531 22.84375 -37 C 23.394531 -37.613281 24.21875 -37.875 25.3125 -37.78125 C 26.601562 -37.675781 27.554688 -37.269531 28.171875 -36.5625 C 28.785156 -35.851562 29.140625 -34.953125 29.234375 -33.859375 C 29.335938 -32.765625 29.28125 -31.578125 29.0625 -30.296875 C 28.851562 -29.023438 28.550781 -27.75 28.15625 -26.46875 C 27.769531 -25.195312 27.382812 -24.007812 27 -22.90625 C 26.625 -21.800781 26.351562 -20.898438 26.1875 -20.203125 C 25.914062 -19.097656 25.660156 -17.789062 25.421875 -16.28125 C 25.191406 -14.769531 24.914062 -13.1875 24.59375 -11.53125 C 24.28125 -9.875 23.867188 -8.257812 23.359375 -6.6875 C 22.859375 -5.125 22.191406 -3.71875 21.359375 -2.46875 C 20.523438 -1.226562 19.46875 -0.273438 18.1875 0.390625 C 16.90625 1.054688 15.332031 1.3125 13.46875 1.15625 C 11.25 0.957031 9.523438 0.296875 8.296875 -0.828125 C 7.066406 -1.960938 6.1875 -3.421875 5.65625 -5.203125 C 5.132812 -6.984375 4.820312 -8.953125 4.71875 -11.109375 C 4.625 -13.273438 4.617188 -15.492188 4.703125 -17.765625 C 4.785156 -20.046875 4.8125 -22.226562 4.78125 -24.3125 Z M 4.78125 -24.3125 "/></g></g></g><g fill="#4b5ae4" fill-opacity="1"><g transform="translate(174.84017, 203.396877)"><g><path d="M 3.5 -6.34375 C 2.84375 -8.570312 2.472656 -10.960938 2.390625 -13.515625 C 2.316406 -16.066406 2.46875 -18.609375 2.84375 -21.140625 C 3.21875 -23.679688 3.789062 -26.082031 4.5625 -28.34375 C 5.34375 -30.601562 6.269531 -32.546875 7.34375 -34.171875 C 7.9375 -35.078125 8.691406 -35.890625 9.609375 -36.609375 C 10.535156 -37.328125 11.539062 -37.875 12.625 -38.25 C 13.71875 -38.625 14.796875 -38.757812 15.859375 -38.65625 C 16.253906 -38.613281 16.5 -38.582031 16.59375 -38.5625 C 16.695312 -38.550781 16.800781 -38.539062 16.90625 -38.53125 C 17.007812 -38.519531 17.257812 -38.492188 17.65625 -38.453125 C 19.445312 -38.265625 20.972656 -37.816406 22.234375 -37.109375 C 23.492188 -36.410156 24.394531 -35.570312 24.9375 -34.59375 C 25.488281 -33.613281 25.550781 -32.628906 25.125 -31.640625 C 24.882812 -30.992188 24.398438 -30.597656 23.671875 -30.453125 C 22.941406 -30.316406 22.117188 -30.296875 21.203125 -30.390625 C 20.546875 -30.460938 19.894531 -30.5625 19.25 -30.6875 C 18.601562 -30.8125 18 -30.898438 17.4375 -30.953125 C 16.9375 -31.003906 16.519531 -31.003906 16.1875 -30.953125 C 15.851562 -30.910156 15.671875 -30.742188 15.640625 -30.453125 C 15.554688 -30.015625 15.820312 -29.679688 16.4375 -29.453125 C 17.050781 -29.234375 17.804688 -29.03125 18.703125 -28.84375 C 19.609375 -28.65625 20.515625 -28.40625 21.421875 -28.09375 C 22.335938 -27.78125 23.078125 -27.3125 23.640625 -26.6875 C 24.210938 -26.0625 24.4375 -25.179688 24.3125 -24.046875 C 24.21875 -23.097656 23.925781 -22.425781 23.4375 -22.03125 C 22.957031 -21.644531 22.347656 -21.421875 21.609375 -21.359375 C 20.867188 -21.296875 20.113281 -21.3125 19.34375 -21.40625 C 18.570312 -21.5 17.820312 -21.566406 17.09375 -21.609375 C 16.375 -21.660156 15.78125 -21.578125 15.3125 -21.359375 C 14.851562 -21.140625 14.585938 -20.695312 14.515625 -20.03125 C 14.378906 -18.726562 14.722656 -17.625 15.546875 -16.71875 C 16.367188 -15.820312 17.585938 -15.285156 19.203125 -15.109375 C 19.347656 -15.085938 19.492188 -15.066406 19.640625 -15.046875 C 19.796875 -15.035156 19.953125 -15.046875 20.109375 -15.078125 C 20.179688 -15.066406 20.269531 -15.054688 20.375 -15.046875 C 20.476562 -15.035156 20.566406 -15.023438 20.640625 -15.015625 C 21.972656 -14.867188 23.050781 -14.332031 23.875 -13.40625 C 24.695312 -12.488281 25.25 -11.363281 25.53125 -10.03125 C 25.820312 -8.707031 25.84375 -7.320312 25.59375 -5.875 C 25.351562 -4.425781 24.832031 -3.09375 24.03125 -1.875 C 23.226562 -0.664062 22.148438 0.28125 20.796875 0.96875 C 19.441406 1.664062 17.78125 1.90625 15.8125 1.6875 L 10.90625 1.171875 C 10.019531 1.078125 9.070312 0.6875 8.0625 0 C 7.0625 -0.695312 6.148438 -1.59375 5.328125 -2.6875 C 4.503906 -3.789062 3.894531 -5.007812 3.5 -6.34375 Z M 3.5 -6.34375 "/></g></g></g><g fill="#4b5ae4" fill-opacity="1"><g transform="translate(202.649317, 206.497098)"><g><path d="M 8.625 -1.015625 C 6.726562 -0.796875 5.203125 -0.847656 4.046875 -1.171875 C 2.890625 -1.492188 2.015625 -1.984375 1.421875 -2.640625 C 0.828125 -3.296875 0.410156 -4.035156 0.171875 -4.859375 C -0.0664062 -5.691406 -0.226562 -6.476562 -0.3125 -7.21875 C -0.457031 -8.445312 -0.46875 -9.75 -0.34375 -11.125 C -0.226562 -12.507812 -0.078125 -13.914062 0.109375 -15.34375 C 0.296875 -16.769531 0.40625 -18.128906 0.4375 -19.421875 C 0.457031 -20.773438 0.335938 -22.175781 0.078125 -23.625 C -0.179688 -25.070312 -0.46875 -26.472656 -0.78125 -27.828125 C -0.875 -28.335938 -1.03125 -29.085938 -1.25 -30.078125 C -1.46875 -31.066406 -1.644531 -32.132812 -1.78125 -33.28125 C -1.914062 -34.425781 -1.925781 -35.523438 -1.8125 -36.578125 C -1.707031 -37.640625 -1.390625 -38.539062 -0.859375 -39.28125 C -0.328125 -40.019531 0.484375 -40.453125 1.578125 -40.578125 C 2.273438 -40.660156 2.988281 -40.601562 3.71875 -40.40625 C 4.457031 -40.207031 4.914062 -40.117188 5.09375 -40.140625 C 5.34375 -40.171875 5.613281 -40.273438 5.90625 -40.453125 C 6.207031 -40.640625 6.707031 -40.84375 7.40625 -41.0625 C 8.113281 -41.28125 9.148438 -41.472656 10.515625 -41.640625 C 11.816406 -41.785156 13.203125 -41.707031 14.671875 -41.40625 C 16.148438 -41.101562 17.550781 -40.460938 18.875 -39.484375 C 20.195312 -38.515625 21.3125 -37.132812 22.21875 -35.34375 C 23.125 -33.5625 23.660156 -31.253906 23.828125 -28.421875 C 23.910156 -26.398438 23.613281 -24.550781 22.9375 -22.875 C 22.269531 -21.195312 21.046875 -19.929688 19.265625 -19.078125 C 20.429688 -18.898438 21.707031 -18.535156 23.09375 -17.984375 C 24.488281 -17.429688 25.8125 -16.6875 27.0625 -15.75 C 28.320312 -14.8125 29.367188 -13.671875 30.203125 -12.328125 C 31.035156 -10.992188 31.484375 -9.4375 31.546875 -7.65625 C 31.585938 -6.382812 31.257812 -5.429688 30.5625 -4.796875 C 29.875 -4.171875 29.054688 -3.738281 28.109375 -3.5 C 27.160156 -3.257812 26.285156 -3.09375 25.484375 -3 C 24.046875 -2.832031 22.898438 -2.878906 22.046875 -3.140625 C 21.203125 -3.398438 20.550781 -3.800781 20.09375 -4.34375 C 19.632812 -4.894531 19.257812 -5.503906 18.96875 -6.171875 C 18.601562 -7.171875 18.066406 -8.296875 17.359375 -9.546875 C 16.660156 -10.796875 15.921875 -12.015625 15.140625 -13.203125 C 14.367188 -14.390625 13.648438 -15.359375 12.984375 -16.109375 C 12.328125 -16.867188 11.84375 -17.234375 11.53125 -17.203125 C 11.382812 -17.179688 11.304688 -17.101562 11.296875 -16.96875 C 11.171875 -16.519531 11.285156 -16.035156 11.640625 -15.515625 C 12.003906 -14.992188 12.457031 -14.378906 13 -13.671875 C 13.550781 -12.972656 14.078125 -12.171875 14.578125 -11.265625 C 15.078125 -10.367188 15.394531 -9.320312 15.53125 -8.125 C 15.695312 -7.070312 15.601562 -6.046875 15.25 -5.046875 C 14.90625 -4.046875 14.21875 -3.179688 13.1875 -2.453125 C 12.15625 -1.734375 10.632812 -1.253906 8.625 -1.015625 Z M 11.15625 -36.21875 C 10.632812 -36.125 10.273438 -35.765625 10.078125 -35.140625 C 9.890625 -34.515625 9.835938 -33.765625 9.921875 -32.890625 C 10.003906 -32.023438 10.191406 -31.1875 10.484375 -30.375 C 10.773438 -29.5625 11.164062 -28.890625 11.65625 -28.359375 C 12.144531 -27.828125 12.707031 -27.597656 13.34375 -27.671875 C 13.519531 -27.691406 13.660156 -27.726562 13.765625 -27.78125 C 14.679688 -28.082031 15.195312 -28.722656 15.3125 -29.703125 C 15.4375 -30.679688 15.296875 -31.675781 14.890625 -32.6875 C 14.515625 -33.695312 13.992188 -34.554688 13.328125 -35.265625 C 12.660156 -35.984375 11.988281 -36.304688 11.3125 -36.234375 C 11.28125 -36.222656 11.253906 -36.21875 11.234375 -36.21875 C 11.222656 -36.21875 11.195312 -36.21875 11.15625 -36.21875 Z M 11.15625 -36.21875 "/></g></g></g><g fill="#4b5ae4" fill-opacity="1"><g transform="translate(237.911678, 201.888598)"><g><path d="M -11.078125 -32.484375 C -11.773438 -33.003906 -12.265625 -33.691406 -12.546875 -34.546875 C -12.835938 -35.398438 -12.800781 -36.242188 -12.4375 -37.078125 C -12.070312 -37.910156 -11.328125 -38.546875 -10.203125 -38.984375 C -10.035156 -39.046875 -9.863281 -39.097656 -9.6875 -39.140625 C -9.519531 -39.191406 -9.335938 -39.238281 -9.140625 -39.28125 C -8.222656 -39.46875 -7.222656 -39.359375 -6.140625 -38.953125 C -5.066406 -38.554688 -4 -38.03125 -2.9375 -37.375 C -1.882812 -36.71875 -0.890625 -36.046875 0.046875 -35.359375 C 0.984375 -34.679688 1.8125 -34.125 2.53125 -33.6875 C 3.25 -33.257812 3.773438 -33.109375 4.109375 -33.234375 C 4.492188 -33.390625 4.847656 -33.894531 5.171875 -34.75 C 5.492188 -35.613281 5.804688 -36.660156 6.109375 -37.890625 C 6.421875 -39.128906 6.796875 -40.378906 7.234375 -41.640625 C 7.679688 -42.898438 8.226562 -44.019531 8.875 -45 C 9.519531 -45.988281 10.335938 -46.671875 11.328125 -47.046875 C 11.753906 -47.210938 12.253906 -47.289062 12.828125 -47.28125 C 13.960938 -47.257812 14.78125 -46.753906 15.28125 -45.765625 C 15.789062 -44.785156 15.898438 -43.503906 15.609375 -41.921875 C 15.328125 -40.347656 14.578125 -38.625 13.359375 -36.75 C 12.472656 -35.40625 11.765625 -33.988281 11.234375 -32.5 C 10.703125 -31.007812 10.691406 -29.398438 11.203125 -27.671875 C 11.554688 -26.453125 12.207031 -25.175781 13.15625 -23.84375 C 14.113281 -22.519531 15.15625 -21.191406 16.28125 -19.859375 C 17.40625 -18.535156 18.460938 -17.25 19.453125 -16 C 20.441406 -14.757812 21.1875 -13.578125 21.6875 -12.453125 C 22.1875 -11.335938 22.253906 -10.332031 21.890625 -9.4375 C 21.535156 -8.550781 20.5625 -7.804688 18.96875 -7.203125 L 9.96875 -3.78125 C 8.875 -3.363281 7.984375 -3.378906 7.296875 -3.828125 C 6.617188 -4.273438 6.085938 -5.03125 5.703125 -6.09375 C 5.328125 -7.15625 5.015625 -8.410156 4.765625 -9.859375 C 4.515625 -11.316406 4.269531 -12.878906 4.03125 -14.546875 C 3.789062 -16.210938 3.503906 -17.867188 3.171875 -19.515625 C 2.847656 -21.171875 2.390625 -22.703125 1.796875 -24.109375 C 1.253906 -25.410156 0.445312 -26.460938 -0.625 -27.265625 C -1.707031 -28.066406 -2.890625 -28.734375 -4.171875 -29.265625 C -5.453125 -29.796875 -6.703125 -30.300781 -7.921875 -30.78125 C -9.148438 -31.257812 -10.203125 -31.828125 -11.078125 -32.484375 Z M -11.078125 -32.484375 "/></g></g></g><g fill="#4b5ae4" fill-opacity="1"><g transform="translate(172.572984, 215.552837)"><g><path d="M 2.34375 3.890625 L 3.609375 -0.203125 L 0.875 1.4375 L 0.390625 0.65625 L 6.359375 -2.9375 L 6.84375 -2.15625 L 4.078125 -0.484375 L 8.328125 0.3125 L 8.90625 1.296875 L 4.296875 0.390625 L 2.953125 4.90625 Z M 2.34375 3.890625 "/></g></g></g><g fill="#4b5ae4" fill-opacity="1"><g transform="translate(176.102631, 221.068626)"><g><path d="M 5.6875 -3.125 C 5.582031 -3.257812 5.539062 -3.40625 5.5625 -3.5625 C 5.582031 -3.726562 5.65625 -3.867188 5.78125 -3.984375 C 5.914062 -4.085938 6.066406 -4.132812 6.234375 -4.125 C 6.398438 -4.113281 6.535156 -4.039062 6.640625 -3.90625 C 6.753906 -3.78125 6.800781 -3.628906 6.78125 -3.453125 C 6.757812 -3.285156 6.679688 -3.148438 6.546875 -3.046875 C 6.421875 -2.929688 6.273438 -2.882812 6.109375 -2.90625 C 5.941406 -2.925781 5.800781 -3 5.6875 -3.125 Z M 5.296875 -2.203125 L 1.078125 1.296875 L 0.484375 0.59375 L 4.703125 -2.90625 Z M 5.296875 -2.203125 "/></g></g></g><g fill="#4b5ae4" fill-opacity="1"><g transform="translate(177.977008, 223.520552)"><g><path d="M 2.140625 -1.8125 C 2.503906 -2.226562 2.910156 -2.523438 3.359375 -2.703125 C 3.804688 -2.878906 4.253906 -2.921875 4.703125 -2.828125 C 5.148438 -2.742188 5.5625 -2.535156 5.9375 -2.203125 C 6.257812 -1.929688 6.492188 -1.601562 6.640625 -1.21875 C 6.796875 -0.832031 6.84375 -0.457031 6.78125 -0.09375 L 8.671875 -2.28125 L 9.375 -1.671875 L 4.53125 3.921875 L 3.828125 3.3125 L 4.5 2.53125 C 4.15625 2.664062 3.78125 2.695312 3.375 2.625 C 2.96875 2.550781 2.585938 2.363281 2.234375 2.0625 C 1.859375 1.738281 1.597656 1.351562 1.453125 0.90625 C 1.316406 0.46875 1.304688 0.0078125 1.421875 -0.46875 C 1.535156 -0.945312 1.773438 -1.394531 2.140625 -1.8125 Z M 5.625 1.234375 C 5.894531 0.921875 6.066406 0.59375 6.140625 0.25 C 6.222656 -0.09375 6.207031 -0.414062 6.09375 -0.71875 C 5.988281 -1.019531 5.804688 -1.285156 5.546875 -1.515625 C 5.296875 -1.734375 5.007812 -1.875 4.6875 -1.9375 C 4.375 -2 4.050781 -1.96875 3.71875 -1.84375 C 3.394531 -1.71875 3.101562 -1.503906 2.84375 -1.203125 C 2.5625 -0.878906 2.378906 -0.546875 2.296875 -0.203125 C 2.222656 0.140625 2.238281 0.460938 2.34375 0.765625 C 2.445312 1.078125 2.625 1.34375 2.875 1.5625 C 3.132812 1.789062 3.425781 1.929688 3.75 1.984375 C 4.070312 2.046875 4.394531 2.015625 4.71875 1.890625 C 5.050781 1.765625 5.351562 1.546875 5.625 1.234375 Z M 5.625 1.234375 "/></g></g></g><g fill="#4b5ae4" fill-opacity="1"><g transform="translate(183.762795, 228.314897)"><g><path d="M 2.328125 1.375 C 1.960938 1.175781 1.664062 0.929688 1.4375 0.640625 C 1.21875 0.359375 1.082031 0.0625 1.03125 -0.25 C 0.988281 -0.570312 1.039062 -0.882812 1.1875 -1.1875 L 2.015625 -0.734375 C 1.910156 -0.484375 1.914062 -0.226562 2.03125 0.03125 C 2.144531 0.289062 2.367188 0.507812 2.703125 0.6875 C 3.003906 0.851562 3.273438 0.914062 3.515625 0.875 C 3.765625 0.84375 3.945312 0.726562 4.0625 0.53125 C 4.175781 0.320312 4.171875 0.113281 4.046875 -0.09375 C 3.921875 -0.300781 3.6875 -0.5625 3.34375 -0.875 C 3.039062 -1.15625 2.800781 -1.40625 2.625 -1.625 C 2.445312 -1.84375 2.328125 -2.09375 2.265625 -2.375 C 2.210938 -2.65625 2.273438 -2.953125 2.453125 -3.265625 C 2.578125 -3.503906 2.769531 -3.6875 3.03125 -3.8125 C 3.289062 -3.9375 3.585938 -3.984375 3.921875 -3.953125 C 4.253906 -3.921875 4.597656 -3.8125 4.953125 -3.625 C 5.472656 -3.332031 5.828125 -2.960938 6.015625 -2.515625 C 6.203125 -2.078125 6.171875 -1.617188 5.921875 -1.140625 L 5.125 -1.578125 C 5.257812 -1.835938 5.273438 -2.09375 5.171875 -2.34375 C 5.078125 -2.59375 4.875 -2.800781 4.5625 -2.96875 C 4.269531 -3.132812 4.003906 -3.203125 3.765625 -3.171875 C 3.523438 -3.140625 3.351562 -3.023438 3.25 -2.828125 C 3.15625 -2.660156 3.128906 -2.5 3.171875 -2.34375 C 3.222656 -2.1875 3.3125 -2.035156 3.4375 -1.890625 C 3.5625 -1.742188 3.742188 -1.554688 3.984375 -1.328125 C 4.273438 -1.046875 4.5 -0.800781 4.65625 -0.59375 C 4.820312 -0.382812 4.929688 -0.144531 4.984375 0.125 C 5.046875 0.394531 5 0.675781 4.84375 0.96875 C 4.695312 1.21875 4.492188 1.40625 4.234375 1.53125 C 3.972656 1.664062 3.675781 1.71875 3.34375 1.6875 C 3.007812 1.664062 2.671875 1.5625 2.328125 1.375 Z M 2.328125 1.375 "/></g></g></g><g fill="#4b5ae4" fill-opacity="1"><g transform="translate(188.865408, 230.969498)"><g/></g></g><g fill="#4b5ae4" fill-opacity="1"><g transform="translate(191.954727, 232.315196)"><g><path d="M 1.046875 -3.359375 C 1.171875 -4.035156 1.425781 -4.613281 1.8125 -5.09375 C 2.207031 -5.570312 2.691406 -5.914062 3.265625 -6.125 C 3.835938 -6.332031 4.441406 -6.378906 5.078125 -6.265625 C 5.828125 -6.128906 6.445312 -5.828125 6.9375 -5.359375 C 7.4375 -4.898438 7.757812 -4.320312 7.90625 -3.625 L 6.828125 -3.8125 C 6.710938 -4.25 6.492188 -4.613281 6.171875 -4.90625 C 5.847656 -5.207031 5.4375 -5.398438 4.9375 -5.484375 C 4.46875 -5.566406 4.019531 -5.523438 3.59375 -5.359375 C 3.175781 -5.203125 2.820312 -4.941406 2.53125 -4.578125 C 2.25 -4.210938 2.054688 -3.753906 1.953125 -3.203125 C 1.859375 -2.648438 1.878906 -2.148438 2.015625 -1.703125 C 2.160156 -1.253906 2.40625 -0.882812 2.75 -0.59375 C 3.09375 -0.300781 3.5 -0.113281 3.96875 -0.03125 C 4.46875 0.0507812 4.914062 0.015625 5.3125 -0.140625 C 5.71875 -0.296875 6.050781 -0.5625 6.3125 -0.9375 L 7.390625 -0.75 C 7.015625 -0.132812 6.515625 0.300781 5.890625 0.5625 C 5.265625 0.820312 4.578125 0.882812 3.828125 0.75 C 3.191406 0.632812 2.640625 0.382812 2.171875 0 C 1.703125 -0.394531 1.367188 -0.882812 1.171875 -1.46875 C 0.972656 -2.0625 0.929688 -2.691406 1.046875 -3.359375 Z M 1.046875 -3.359375 "/></g></g></g><g fill="#4b5ae4" fill-opacity="1"><g transform="translate(200.236249, 233.489557)"><g><path d="M 1.65625 -7.40625 L 1.6875 0 L 0.765625 0 L 0.734375 -7.40625 Z M 1.65625 -7.40625 "/></g></g></g><g fill="#4b5ae4" fill-opacity="1"><g transform="translate(203.299065, 233.583839)"><g><path d="M 3.125 -0.421875 C 2.625 -0.335938 2.148438 -0.375 1.703125 -0.53125 C 1.253906 -0.695312 0.878906 -0.972656 0.578125 -1.359375 C 0.273438 -1.753906 0.0820312 -2.234375 0 -2.796875 C -0.09375 -3.347656 -0.0546875 -3.851562 0.109375 -4.3125 C 0.273438 -4.769531 0.546875 -5.144531 0.921875 -5.4375 C 1.296875 -5.726562 1.738281 -5.914062 2.25 -6 C 2.769531 -6.082031 3.253906 -6.046875 3.703125 -5.890625 C 4.160156 -5.734375 4.539062 -5.460938 4.84375 -5.078125 C 5.15625 -4.703125 5.359375 -4.238281 5.453125 -3.6875 C 5.535156 -3.125 5.488281 -2.609375 5.3125 -2.140625 C 5.144531 -1.671875 4.867188 -1.285156 4.484375 -0.984375 C 4.097656 -0.691406 3.644531 -0.503906 3.125 -0.421875 Z M 3 -1.203125 C 3.332031 -1.253906 3.625 -1.378906 3.875 -1.578125 C 4.132812 -1.785156 4.328125 -2.050781 4.453125 -2.375 C 4.578125 -2.707031 4.609375 -3.09375 4.546875 -3.53125 C 4.472656 -3.957031 4.320312 -4.304688 4.09375 -4.578125 C 3.863281 -4.859375 3.601562 -5.050781 3.3125 -5.15625 C 3.019531 -5.257812 2.707031 -5.285156 2.375 -5.234375 C 2.050781 -5.179688 1.757812 -5.054688 1.5 -4.859375 C 1.25 -4.660156 1.066406 -4.394531 0.953125 -4.0625 C 0.847656 -3.738281 0.832031 -3.363281 0.90625 -2.9375 C 0.976562 -2.488281 1.113281 -2.125 1.3125 -1.84375 C 1.519531 -1.570312 1.773438 -1.382812 2.078125 -1.28125 C 2.378906 -1.175781 2.6875 -1.148438 3 -1.203125 Z M 3 -1.203125 "/></g></g></g><g fill="#4b5ae4" fill-opacity="1"><g transform="translate(210.219765, 232.268034)"><g><path d="M 0.1875 -5.09375 L 1.265625 -2.03125 C 1.359375 -1.78125 1.476562 -1.617188 1.625 -1.546875 C 1.769531 -1.484375 1.972656 -1.5 2.234375 -1.59375 L 2.875 -1.828125 L 3.125 -1.109375 L 2.34375 -0.828125 C 1.875 -0.660156 1.476562 -0.644531 1.15625 -0.78125 C 0.832031 -0.914062 0.582031 -1.234375 0.40625 -1.734375 L -0.671875 -4.796875 L -1.328125 -4.5625 L -1.578125 -5.265625 L -0.921875 -5.5 L -1.390625 -6.796875 L -0.53125 -7.09375 L -0.0625 -5.796875 L 1.296875 -6.28125 L 1.546875 -5.578125 Z M 0.1875 -5.09375 "/></g></g></g><g fill="#4b5ae4" fill-opacity="1"><g transform="translate(214.298897, 230.889065)"><g><path d="M 0.265625 -6.578125 C 0.617188 -6.773438 0.984375 -6.878906 1.359375 -6.890625 C 1.742188 -6.898438 2.109375 -6.800781 2.453125 -6.59375 C 2.796875 -6.382812 3.085938 -6.066406 3.328125 -5.640625 L 4.9375 -2.828125 L 4.15625 -2.375 L 2.625 -5.0625 C 2.351562 -5.539062 2.023438 -5.835938 1.640625 -5.953125 C 1.253906 -6.066406 0.859375 -6.007812 0.453125 -5.78125 C 0.0351562 -5.539062 -0.21875 -5.21875 -0.3125 -4.8125 C -0.40625 -4.414062 -0.3125 -3.96875 -0.03125 -3.46875 L 1.46875 -0.84375 L 0.671875 -0.375 L -3 -6.8125 L -2.203125 -7.28125 L -0.859375 -4.921875 C -0.847656 -5.253906 -0.738281 -5.5625 -0.53125 -5.84375 C -0.332031 -6.132812 -0.0664062 -6.378906 0.265625 -6.578125 Z M 0.265625 -6.578125 "/></g></g></g><g fill="#4b5ae4" fill-opacity="1"><g transform="translate(220.25695, 227.254396)"><g><path d="M -3.03125 -5.734375 C -3.164062 -5.628906 -3.316406 -5.585938 -3.484375 -5.609375 C -3.648438 -5.628906 -3.785156 -5.703125 -3.890625 -5.828125 C -4.003906 -5.972656 -4.050781 -6.128906 -4.03125 -6.296875 C -4.007812 -6.460938 -3.929688 -6.597656 -3.796875 -6.703125 C -3.671875 -6.804688 -3.523438 -6.847656 -3.359375 -6.828125 C -3.191406 -6.816406 -3.050781 -6.738281 -2.9375 -6.59375 C -2.832031 -6.46875 -2.789062 -6.316406 -2.8125 -6.140625 C -2.832031 -5.972656 -2.90625 -5.835938 -3.03125 -5.734375 Z M -2.125 -5.34375 L 1.3125 -1.0625 L 0.59375 -0.484375 L -2.84375 -4.765625 Z M -2.125 -5.34375 "/></g></g></g><g fill="#4b5ae4" fill-opacity="1"><g transform="translate(222.711963, 225.420506)"><g><path d="M -1.828125 -6.296875 C -1.378906 -6.785156 -0.863281 -7.050781 -0.28125 -7.09375 C 0.289062 -7.132812 0.859375 -6.898438 1.421875 -6.390625 L 3.8125 -4.21875 L 3.203125 -3.546875 L 0.90625 -5.625 C 0.5 -6 0.0976562 -6.175781 -0.296875 -6.15625 C -0.691406 -6.144531 -1.046875 -5.96875 -1.359375 -5.625 C -1.679688 -5.269531 -1.828125 -4.882812 -1.796875 -4.46875 C -1.765625 -4.0625 -1.535156 -3.664062 -1.109375 -3.28125 L 1.140625 -1.25 L 0.515625 -0.5625 L -3.546875 -4.25 L -2.921875 -4.9375 L -2.34375 -4.40625 C -2.4375 -4.726562 -2.4375 -5.050781 -2.34375 -5.375 C -2.25 -5.707031 -2.078125 -6.015625 -1.828125 -6.296875 Z M -1.828125 -6.296875 "/></g></g></g><g fill="#4b5ae4" fill-opacity="1"><g transform="translate(227.511945, 220.012512)"><g><path d="M -3.40625 -5.34375 C -3.1875 -5.75 -2.898438 -6.0625 -2.546875 -6.28125 C -2.191406 -6.5 -1.835938 -6.609375 -1.484375 -6.609375 L -2.359375 -7.078125 L -1.90625 -7.875 L 3 -5.171875 C 3.4375 -4.929688 3.773438 -4.625 4.015625 -4.25 C 4.253906 -3.882812 4.375 -3.472656 4.375 -3.015625 C 4.375 -2.566406 4.25 -2.113281 4 -1.65625 C 3.65625 -1.03125 3.21875 -0.582031 2.6875 -0.3125 C 2.15625 -0.0507812 1.609375 -0.0234375 1.046875 -0.234375 L 1.484375 -1.03125 C 1.828125 -0.957031 2.160156 -1.007812 2.484375 -1.1875 C 2.804688 -1.363281 3.078125 -1.644531 3.296875 -2.03125 C 3.535156 -2.46875 3.59375 -2.898438 3.46875 -3.328125 C 3.34375 -3.753906 3.035156 -4.101562 2.546875 -4.375 L 1.53125 -4.9375 C 1.726562 -4.625 1.832031 -4.257812 1.84375 -3.84375 C 1.863281 -3.425781 1.765625 -3.015625 1.546875 -2.609375 C 1.304688 -2.179688 0.984375 -1.847656 0.578125 -1.609375 C 0.179688 -1.378906 -0.257812 -1.273438 -0.75 -1.296875 C -1.238281 -1.316406 -1.722656 -1.457031 -2.203125 -1.71875 C -2.679688 -1.988281 -3.054688 -2.320312 -3.328125 -2.71875 C -3.597656 -3.125 -3.738281 -3.554688 -3.75 -4.015625 C -3.757812 -4.472656 -3.644531 -4.914062 -3.40625 -5.34375 Z M 0.03125 -5.765625 C -0.332031 -5.960938 -0.6875 -6.0625 -1.03125 -6.0625 C -1.382812 -6.070312 -1.695312 -5.988281 -1.96875 -5.8125 C -2.25 -5.644531 -2.472656 -5.414062 -2.640625 -5.125 C -2.804688 -4.832031 -2.882812 -4.519531 -2.875 -4.1875 C -2.875 -3.863281 -2.773438 -3.550781 -2.578125 -3.25 C -2.390625 -2.957031 -2.117188 -2.710938 -1.765625 -2.515625 C -1.390625 -2.316406 -1.023438 -2.210938 -0.671875 -2.203125 C -0.328125 -2.203125 -0.015625 -2.285156 0.265625 -2.453125 C 0.546875 -2.628906 0.769531 -2.863281 0.9375 -3.15625 C 1.101562 -3.445312 1.179688 -3.753906 1.171875 -4.078125 C 1.160156 -4.410156 1.054688 -4.722656 0.859375 -5.015625 C 0.671875 -5.316406 0.394531 -5.566406 0.03125 -5.765625 Z M 0.03125 -5.765625 "/></g></g></g></svg>